<?xml version="1.0" encoding="UTF-8"?> <svg xmlns="http://www.w3.org/2000/svg" width="333" height="75" viewBox="0 0 333 75" fill="none"><path d="M101.488 53.6594C101.568 53.7345 101.63 53.8259 101.671 53.9272C101.712 54.0286 101.731 54.1375 101.726 54.2467C101.727 54.348 101.706 54.4483 101.665 54.541C101.624 54.6337 101.564 54.7165 101.488 54.7841C101.41 54.8642 101.317 54.9276 101.213 54.9706C101.11 55.0136 100.999 55.0351 100.887 55.034H96.8034V57.8332H100.211C100.433 57.827 100.649 57.9078 100.812 58.0581C100.891 58.1333 100.954 58.2246 100.995 58.326C101.036 58.4273 101.055 58.5362 101.05 58.6454C101.051 58.7486 101.03 58.8509 100.989 58.9456C100.948 59.0403 100.888 59.1254 100.812 59.1953C100.649 59.3456 100.433 59.4264 100.211 59.4202H96.8034V63.0817C96.8053 63.1946 96.7828 63.3066 96.7374 63.4101C96.692 63.5136 96.6248 63.6062 96.5404 63.6815C96.4617 63.7599 96.3678 63.8215 96.2644 63.8623C96.161 63.9031 96.0503 63.9224 95.9391 63.9189C95.824 63.9236 95.7092 63.905 95.6016 63.8642C95.4939 63.8234 95.3957 63.7612 95.3128 63.6815C95.2342 63.603 95.1725 63.5093 95.1316 63.4061C95.0906 63.303 95.0713 63.1926 95.0748 63.0817V54.2592C95.0713 54.1483 95.0906 54.0379 95.1316 53.9347C95.1725 53.8316 95.2342 53.7379 95.3128 53.6594C95.4749 53.5056 95.6904 53.4205 95.9141 53.422H100.925C101.136 53.425 101.338 53.5102 101.488 53.6594ZM106.987 53.422C106.752 53.416 106.523 53.5011 106.348 53.6594C106.264 53.7396 106.199 53.8369 106.155 53.9447C106.112 54.0525 106.093 54.1683 106.098 54.2842V63.0317C106.09 63.2574 106.171 63.4772 106.323 63.644C106.405 63.725 106.504 63.7879 106.611 63.8288C106.719 63.8697 106.835 63.8876 106.95 63.8814C107.178 63.8862 107.398 63.8008 107.564 63.644C107.653 63.5697 107.725 63.4759 107.772 63.3697C107.82 63.2636 107.843 63.1479 107.839 63.0317V54.2842C107.842 54.1674 107.82 54.0513 107.775 53.9436C107.73 53.8359 107.662 53.739 107.576 53.6594C107.415 53.5117 107.206 53.4273 106.987 53.422ZM120.841 53.422C120.737 53.4183 120.633 53.4364 120.536 53.4751C120.439 53.5139 120.351 53.5724 120.278 53.6469C120.141 53.8015 120.069 54.003 120.077 54.2092V60.9448L114.503 53.7219C114.424 53.6171 114.315 53.5386 114.19 53.4969C114.062 53.4481 113.926 53.4227 113.789 53.422C113.565 53.4205 113.35 53.5056 113.188 53.6594C113.034 53.8211 112.948 54.0361 112.95 54.2592V63.1441C112.945 63.3482 113.022 63.5458 113.163 63.694C113.232 63.7672 113.315 63.8251 113.408 63.8639C113.501 63.9026 113.601 63.9214 113.701 63.9189C113.806 63.9242 113.911 63.9068 114.008 63.868C114.105 63.8292 114.193 63.7698 114.265 63.694C114.339 63.6229 114.397 63.5374 114.436 63.4427C114.475 63.3481 114.493 63.2464 114.491 63.1441V56.4586L120.14 63.6815C120.213 63.7705 120.315 63.8321 120.428 63.8564C120.548 63.9013 120.676 63.9226 120.804 63.9189C120.915 63.9224 121.026 63.9031 121.129 63.8623C121.233 63.8215 121.326 63.7599 121.405 63.6815C121.561 63.516 121.646 63.2964 121.643 63.0692V54.2092C121.648 54.0013 121.572 53.7996 121.43 53.6469C121.356 53.5669 121.264 53.5051 121.162 53.4661C121.06 53.4271 120.95 53.412 120.841 53.422ZM134.808 62.8442C134.846 62.9486 134.867 63.0582 134.871 63.1691C134.874 63.2799 134.854 63.3902 134.813 63.4932C134.772 63.5963 134.711 63.6901 134.633 63.769C134.481 63.9041 134.285 63.9796 134.082 63.9814C133.919 63.9814 133.761 63.9288 133.631 63.8314C133.494 63.7272 133.386 63.5895 133.318 63.4316L132.478 61.4696H127.944L127.117 63.4316C127.062 63.5965 126.957 63.7404 126.816 63.8439C126.687 63.9321 126.535 63.98 126.378 63.9814C126.277 63.9915 126.175 63.9787 126.08 63.9441C125.984 63.9095 125.898 63.8539 125.827 63.7815C125.701 63.6409 125.634 63.4576 125.639 63.2691C125.622 63.1782 125.622 63.085 125.639 62.9942L129.397 53.9218C129.458 53.7462 129.578 53.5965 129.735 53.4969C129.875 53.3919 130.049 53.3429 130.224 53.3595C130.394 53.3609 130.559 53.4132 130.7 53.5094C130.844 53.6091 130.95 53.7545 131 53.9218L134.808 62.8442ZM131.802 59.8701L130.199 56.1212L128.62 59.8701H131.802ZM146.833 53.422C146.731 53.4177 146.628 53.4356 146.533 53.4744C146.438 53.5132 146.353 53.572 146.282 53.6469C146.141 53.7996 146.064 54.0013 146.069 54.2092V60.9448L140.445 53.7219C140.371 53.6174 140.266 53.5387 140.144 53.4969C140.016 53.4503 139.88 53.4249 139.744 53.422C139.52 53.4205 139.304 53.5056 139.142 53.6594C139.064 53.7379 139.002 53.8316 138.961 53.9347C138.92 54.0379 138.901 54.1483 138.904 54.2592V63.1441C138.9 63.2444 138.915 63.3446 138.95 63.439C138.984 63.5334 139.037 63.62 139.105 63.694C139.176 63.7676 139.262 63.8256 139.357 63.8643C139.451 63.903 139.553 63.9216 139.656 63.9189C139.76 63.9218 139.864 63.9034 139.961 63.8647C140.058 63.826 140.146 63.7679 140.22 63.694C140.36 63.5458 140.437 63.3482 140.433 63.1441V56.4586L146.082 63.6815C146.163 63.7681 146.267 63.829 146.383 63.8564C146.498 63.9013 146.622 63.9226 146.746 63.9189C146.857 63.9224 146.968 63.9031 147.071 63.8623C147.174 63.8215 147.268 63.7599 147.347 63.6815C147.427 63.6011 147.489 63.5053 147.53 63.4C147.571 63.2946 147.59 63.182 147.585 63.0692V54.2092C147.59 54.1059 147.574 54.0026 147.538 53.9058C147.501 53.8091 147.445 53.7209 147.372 53.6469C147.306 53.574 147.224 53.5162 147.134 53.4773C147.043 53.4385 146.945 53.4196 146.846 53.422H146.833ZM159.898 61.8945C159.699 61.8705 159.498 61.9099 159.322 62.007C159.053 62.1456 158.767 62.2466 158.47 62.3069C158.179 62.3778 157.881 62.4114 157.581 62.4069C157.099 62.4147 156.619 62.3342 156.166 62.1694C155.738 62.023 155.349 61.784 155.026 61.4696C154.688 61.1381 154.428 60.7373 154.262 60.295C154.072 59.7746 153.978 59.2241 153.986 58.6704C153.982 58.1681 154.067 57.669 154.237 57.1959C154.392 56.7571 154.64 56.3566 154.963 56.0212C155.28 55.6934 155.665 55.4377 156.09 55.2714C156.563 55.0797 157.071 54.9862 157.581 54.9965C157.889 54.9946 158.197 55.0324 158.495 55.109C158.78 55.1869 159.057 55.2915 159.322 55.4214C159.501 55.5084 159.701 55.543 159.898 55.5214C159.992 55.5152 160.084 55.4886 160.166 55.4432C160.248 55.3978 160.319 55.3349 160.374 55.2589C160.457 55.1612 160.517 55.0471 160.551 54.9243C160.586 54.8015 160.594 54.6728 160.575 54.5466C160.559 54.4241 160.511 54.3078 160.436 54.2092C160.362 54.1106 160.263 54.0331 160.149 53.9843C159.755 53.7664 159.334 53.6025 158.896 53.4969C158.458 53.3853 158.008 53.3307 157.556 53.3345C156.819 53.3297 156.088 53.4654 155.401 53.7344C154.764 53.9987 154.182 54.3802 153.685 54.859C153.195 55.3363 152.811 55.9111 152.558 56.5461C152.288 57.2217 152.152 57.9431 152.157 58.6704C152.142 59.467 152.291 60.2583 152.596 60.9948C152.863 61.6375 153.269 62.2135 153.786 62.6818C154.283 63.137 154.867 63.4895 155.502 63.719C156.16 63.9563 156.856 64.0748 157.556 64.0689C157.854 64.0692 158.152 64.0442 158.445 63.9939C158.743 63.9483 159.037 63.8772 159.322 63.7815C159.601 63.6864 159.872 63.5737 160.136 63.4441C160.247 63.3974 160.344 63.3237 160.418 63.2298C160.493 63.1359 160.542 63.0248 160.562 62.9067C160.586 62.7806 160.58 62.6508 160.545 62.5273C160.51 62.4038 160.448 62.2899 160.362 62.1944C160.253 62.0437 160.092 61.9372 159.911 61.8945H159.898ZM165.798 53.422C165.563 53.416 165.334 53.5011 165.159 53.6594C165.078 53.7415 165.014 53.8391 164.971 53.9464C164.928 54.0538 164.907 54.1686 164.909 54.2842V63.0317C164.901 63.2574 164.982 63.4772 165.134 63.644C165.216 63.725 165.315 63.7879 165.422 63.8288C165.53 63.8697 165.646 63.8876 165.761 63.8814C165.992 63.8842 166.216 63.7993 166.387 63.644C166.472 63.5668 166.54 63.4721 166.586 63.3665C166.631 63.2608 166.653 63.1466 166.65 63.0317V54.2842C166.653 54.1674 166.631 54.0513 166.586 53.9436C166.541 53.8359 166.473 53.739 166.387 53.6594C166.243 53.5249 166.058 53.4414 165.861 53.422H165.798ZM179.853 62.8442C179.891 62.9486 179.912 63.0582 179.915 63.1691C179.921 63.2803 179.903 63.3914 179.862 63.4949C179.821 63.5984 179.758 63.6919 179.677 63.769C179.53 63.9032 179.338 63.9788 179.139 63.9814C178.972 63.9832 178.809 63.9305 178.675 63.8314C178.538 63.7272 178.43 63.5895 178.362 63.4316L177.535 61.4696H173.001L172.124 63.4316C172.069 63.5965 171.964 63.7404 171.823 63.8439C171.695 63.9336 171.542 63.9815 171.385 63.9814C171.284 63.9915 171.182 63.9787 171.087 63.9441C170.991 63.9095 170.905 63.8539 170.834 63.7815C170.708 63.6409 170.641 63.4576 170.646 63.2691C170.629 63.1782 170.629 63.085 170.646 62.9942L174.404 53.9218C174.469 53.7484 174.588 53.5999 174.742 53.4969C174.882 53.3919 175.056 53.3429 175.231 53.3595C175.401 53.3593 175.567 53.4117 175.707 53.5094C175.851 53.6091 175.957 53.7545 176.007 53.9218L179.853 62.8442ZM176.846 59.8701L175.243 56.1212L173.665 59.8701H176.846ZM189.761 62.2819H185.703V54.2592C185.704 54.1463 185.682 54.0342 185.637 53.9307C185.591 53.8272 185.524 53.7347 185.44 53.6594C185.279 53.5117 185.069 53.4273 184.851 53.422C184.615 53.416 184.386 53.5011 184.212 53.6594C184.129 53.7353 184.064 53.8283 184.021 53.9318C183.977 54.0354 183.957 54.1471 183.961 54.2592V63.0817C183.958 63.1926 183.977 63.303 184.018 63.4061C184.059 63.5093 184.121 63.603 184.199 63.6815C184.278 63.7599 184.372 63.8215 184.475 63.8623C184.579 63.9031 184.69 63.9224 184.801 63.9189H189.811C190.033 63.9251 190.249 63.8443 190.412 63.694C190.491 63.6179 190.552 63.5263 190.593 63.4252C190.634 63.3241 190.654 63.2157 190.65 63.1066C190.655 62.9975 190.637 62.8885 190.596 62.7872C190.554 62.6858 190.492 62.5945 190.412 62.5193C190.328 62.4386 190.227 62.3759 190.118 62.3351C190.008 62.2943 189.891 62.2762 189.774 62.2819H189.761ZM209.703 61.8945C209.504 61.8696 209.302 61.909 209.127 62.007C208.856 62.1419 208.57 62.2427 208.275 62.3069C207.984 62.377 207.685 62.4106 207.386 62.4069C206.899 62.4135 206.416 62.333 205.958 62.1694C205.531 62.023 205.141 61.784 204.818 61.4696C204.488 61.1343 204.232 60.7343 204.066 60.295C203.87 59.7762 203.777 59.2246 203.791 58.6704C203.781 58.1676 203.866 57.6674 204.041 57.1959C204.197 56.7601 204.44 56.3604 204.755 56.0212C205.077 55.6931 205.466 55.4375 205.895 55.2714C206.368 55.0797 206.875 54.9862 207.386 54.9965C207.694 54.9954 208.001 55.0332 208.3 55.109C208.585 55.1869 208.862 55.2915 209.127 55.4214C209.305 55.5097 209.505 55.5444 209.703 55.5214C209.797 55.5144 209.888 55.4874 209.97 55.4421C210.052 55.3968 210.123 55.3343 210.179 55.2589C210.26 55.1605 210.318 55.046 210.351 54.9232C210.383 54.8003 210.389 54.6719 210.367 54.5466C210.353 54.425 210.308 54.3091 210.235 54.2104C210.163 54.1118 210.066 54.0338 209.954 53.9843C209.559 53.7688 209.138 53.605 208.701 53.4969C208.263 53.3868 207.812 53.3322 207.361 53.3345C206.623 53.3297 205.892 53.4654 205.206 53.7344C204.563 53.9957 203.976 54.3775 203.477 54.859C202.995 55.3429 202.612 55.916 202.35 56.5461C202.085 57.2226 201.953 57.944 201.962 58.6704C201.94 59.4675 202.089 60.2601 202.4 60.9948C202.663 61.6367 203.065 62.2128 203.578 62.6818C204.077 63.1408 204.666 63.4937 205.306 63.719C205.964 63.9573 206.66 64.0758 207.361 64.0689C207.659 64.0688 207.956 64.0437 208.25 63.9939C208.544 63.9482 208.833 63.8771 209.114 63.7815C209.396 63.6842 209.672 63.5715 209.941 63.4441C210.049 63.3931 210.143 63.3181 210.217 63.2249C210.291 63.1317 210.342 63.0229 210.367 62.9067C210.384 62.7806 210.376 62.6523 210.341 62.5297C210.307 62.4071 210.247 62.293 210.166 62.1944C210.054 62.0412 209.889 61.9344 209.703 61.8945ZM223.707 56.5586C223.963 57.2332 224.09 57.9493 224.083 58.6704C224.089 59.3955 223.962 60.1155 223.707 60.7948C223.466 61.4218 223.109 61.9982 222.655 62.4943C222.196 62.9871 221.642 63.3823 221.027 63.6565C220.387 63.9334 219.695 64.0739 218.998 64.0689C218.291 64.0774 217.591 63.9369 216.943 63.6565C216.334 63.3783 215.785 62.9835 215.327 62.4943C214.873 61.9982 214.517 61.4218 214.275 60.7948C214.021 60.1155 213.893 59.3955 213.899 58.6704C213.892 57.9493 214.02 57.2332 214.275 56.5586C214.516 55.9278 214.873 55.3472 215.327 54.8465C215.785 54.3612 216.334 53.9705 216.943 53.6969C217.588 53.4066 218.29 53.2615 218.998 53.272C219.697 53.2644 220.389 53.4094 221.027 53.6969C221.641 53.9673 222.195 54.3583 222.655 54.8465C223.118 55.3452 223.484 55.9258 223.732 56.5586H223.707ZM222.279 58.6704C222.29 58.0126 222.144 57.3616 221.854 56.771C221.588 56.232 221.187 55.7712 220.689 55.4339C220.187 55.1053 219.598 54.9355 218.998 54.9465C218.389 54.9335 217.791 55.1034 217.281 55.4339C216.783 55.7712 216.382 56.232 216.116 56.771C215.833 57.3638 215.692 58.0139 215.703 58.6704C215.693 59.3268 215.835 59.9767 216.116 60.5699C216.385 61.11 216.786 61.5741 217.281 61.9195C217.791 62.25 218.389 62.4198 218.998 62.4069C219.598 62.4179 220.187 62.248 220.689 61.9195C221.184 61.5741 221.585 61.11 221.854 60.5699C222.154 59.9819 222.309 59.3305 222.304 58.6704H222.279ZM236.66 53.422C236.557 53.4177 236.454 53.4356 236.359 53.4744C236.264 53.5132 236.179 53.572 236.108 53.6469C236.036 53.7209 235.98 53.8091 235.943 53.9058C235.906 54.0026 235.89 54.1059 235.895 54.2092V60.9448L230.271 53.7219C230.194 53.6146 230.084 53.5356 229.958 53.4969C229.834 53.448 229.703 53.4225 229.57 53.422C229.459 53.4192 229.348 53.4388 229.245 53.4796C229.142 53.5204 229.048 53.5815 228.968 53.6594C228.89 53.7379 228.828 53.8316 228.787 53.9347C228.746 54.0379 228.727 54.1483 228.73 54.2592V63.1441C228.726 63.2444 228.741 63.3446 228.776 63.439C228.81 63.5334 228.863 63.62 228.931 63.694C229 63.7666 229.084 63.8241 229.177 63.8628C229.269 63.9015 229.369 63.9206 229.469 63.9189C229.576 63.9228 229.682 63.9049 229.781 63.8662C229.88 63.8275 229.97 63.7689 230.046 63.694C230.187 63.5458 230.263 63.3482 230.259 63.1441V56.4586L235.908 63.6815C235.989 63.7681 236.093 63.829 236.209 63.8564C236.324 63.9013 236.448 63.9226 236.572 63.9189C236.683 63.9224 236.794 63.9031 236.897 63.8623C237.001 63.8215 237.094 63.7599 237.173 63.6815C237.253 63.6011 237.315 63.5053 237.356 63.4C237.397 63.2946 237.416 63.182 237.411 63.0692V54.2092C237.416 54.0013 237.34 53.7996 237.198 53.6469C237.133 53.5756 237.054 53.5187 236.965 53.4799C236.877 53.4412 236.781 53.4214 236.685 53.422H236.66ZM248.747 58.8204C248.409 58.5609 248.027 58.3621 247.62 58.2331C247.114 58.0745 246.6 57.9451 246.079 57.8457C245.675 57.7613 245.278 57.6486 244.889 57.5083C244.592 57.4088 244.322 57.242 244.1 57.0209C243.921 56.7977 243.823 56.5198 243.825 56.2336C243.823 55.9765 243.906 55.726 244.063 55.5214C244.251 55.3077 244.493 55.1481 244.764 55.059C245.125 54.9294 245.508 54.87 245.891 54.884C246.18 54.8852 246.467 54.9273 246.743 55.009C247.037 55.089 247.323 55.1978 247.595 55.3339C247.833 55.4359 248.053 55.5751 248.246 55.7463C248.349 55.8386 248.484 55.8878 248.622 55.8837C248.73 55.8837 248.837 55.8615 248.936 55.8185C249.035 55.7755 249.125 55.7126 249.198 55.6338C249.344 55.4816 249.428 55.2816 249.436 55.0715C249.43 54.9232 249.39 54.7783 249.318 54.6482C249.246 54.5182 249.145 54.4064 249.023 54.3217C248.624 53.9883 248.165 53.7338 247.67 53.5719C247.1 53.3683 246.497 53.2668 245.891 53.272C245.243 53.2644 244.6 53.3876 244 53.6344C243.465 53.8494 243.001 54.2085 242.66 54.6716C242.324 55.1501 242.152 55.7246 242.171 56.3086C242.166 56.7073 242.243 57.1028 242.397 57.4708C242.538 57.8087 242.752 58.1116 243.023 58.358C243.324 58.6272 243.672 58.839 244.05 58.9828C244.497 59.1596 244.964 59.2813 245.441 59.3452C245.919 59.4207 246.389 59.542 246.843 59.7076C247.168 59.8256 247.46 60.0182 247.695 60.27C247.88 60.4998 247.978 60.7875 247.971 61.0822C247.973 61.216 247.949 61.349 247.9 61.4734C247.85 61.5978 247.776 61.7112 247.683 61.807C247.464 62.023 247.198 62.1856 246.906 62.2819C246.571 62.4111 246.213 62.4747 245.854 62.4693C245.365 62.4837 244.878 62.3942 244.426 62.2069C244.008 62.0233 243.62 61.779 243.273 61.4821C243.135 61.3604 242.957 61.2937 242.772 61.2947C242.664 61.2932 242.557 61.3147 242.457 61.3578C242.358 61.4009 242.269 61.4646 242.196 61.5446C242.047 61.694 241.961 61.8957 241.958 62.1069C241.96 62.2422 241.995 62.375 242.058 62.4943C242.124 62.6291 242.218 62.7483 242.334 62.8442C242.803 63.2659 243.353 63.589 243.95 63.794C244.565 63.9876 245.208 64.0804 245.854 64.0689C246.504 64.0765 247.148 63.9488 247.745 63.694C248.294 63.4673 248.773 63.1011 249.136 62.6318C249.49 62.1605 249.676 61.5839 249.662 60.9948C249.669 60.5664 249.588 60.1411 249.424 59.7451C249.291 59.3858 249.066 59.0672 248.773 58.8204H248.747ZM261.549 53.4095C261.439 53.4045 261.328 53.4243 261.226 53.4676C261.125 53.5108 261.034 53.5764 260.961 53.6594C260.819 53.8268 260.743 54.0401 260.748 54.2592V59.7951C260.759 60.2648 260.637 60.7283 260.397 61.1322C260.173 61.5056 259.853 61.812 259.47 62.0195C259.087 62.231 258.655 62.3387 258.217 62.3319C257.779 62.3475 257.344 62.2392 256.965 62.0195C256.59 61.8139 256.281 61.5061 256.075 61.1322C255.839 60.727 255.722 60.2636 255.737 59.7951V54.2592C255.738 54.1475 255.717 54.0368 255.674 53.9337C255.631 53.8306 255.567 53.7372 255.487 53.6594C255.33 53.504 255.119 53.4146 254.898 53.4095C254.66 53.4069 254.431 53.4965 254.259 53.6594C254.18 53.7379 254.119 53.8316 254.078 53.9347C254.037 54.0379 254.018 54.1483 254.021 54.2592V59.7951C254.006 60.5569 254.187 61.3098 254.547 61.982C254.895 62.6111 255.417 63.1273 256.05 63.469C256.707 63.8379 257.451 64.0236 258.205 64.0064C258.95 64.0215 259.686 63.8359 260.334 63.469C260.962 63.1257 261.483 62.6153 261.837 61.9945C262.197 61.3223 262.378 60.5694 262.364 59.8076V54.2717C262.374 54.0516 262.298 53.8361 262.151 53.6719C262.081 53.5876 261.992 53.5202 261.893 53.4747C261.793 53.4293 261.684 53.407 261.574 53.4095H261.549ZM273.199 62.2819H269.14V54.2592C269.142 54.1463 269.12 54.0342 269.074 53.9307C269.029 53.8272 268.962 53.7347 268.877 53.6594C268.716 53.5117 268.507 53.4273 268.289 53.422C268.053 53.416 267.824 53.5011 267.65 53.6594C267.567 53.7353 267.502 53.8283 267.458 53.9318C267.415 54.0354 267.395 54.1471 267.399 54.2592V63.0817C267.396 63.1926 267.415 63.303 267.456 63.4061C267.497 63.5093 267.558 63.603 267.637 63.6815C267.716 63.7599 267.81 63.8215 267.913 63.8623C268.017 63.9031 268.127 63.9224 268.238 63.9189H273.249C273.471 63.9251 273.687 63.8443 273.85 63.694C273.928 63.6179 273.99 63.5263 274.031 63.4252C274.072 63.3241 274.091 63.2157 274.088 63.1066C274.093 62.9975 274.074 62.8885 274.033 62.7872C273.992 62.6858 273.93 62.5945 273.85 62.5193C273.767 62.4401 273.669 62.3784 273.561 62.3376C273.453 62.2968 273.339 62.2779 273.224 62.2819H273.199ZM284.147 53.422H277.395C277.285 53.4176 277.175 53.4352 277.072 53.4738C276.968 53.5124 276.874 53.5713 276.794 53.6469C276.714 53.7191 276.651 53.8081 276.61 53.9076C276.569 54.007 276.55 54.1143 276.556 54.2217C276.551 54.3309 276.57 54.4399 276.611 54.5412C276.652 54.6426 276.714 54.7339 276.794 54.8091C276.874 54.8847 276.968 54.9435 277.072 54.9821C277.175 55.0208 277.285 55.0384 277.395 55.034H279.9V63.0817C279.896 63.1938 279.916 63.3055 279.96 63.409C280.003 63.5126 280.068 63.6056 280.151 63.6815C280.234 63.7607 280.332 63.8224 280.44 63.8632C280.548 63.904 280.662 63.9229 280.777 63.9189C280.898 63.9252 281.019 63.9074 281.133 63.8666C281.247 63.8259 281.352 63.7629 281.441 63.6815C281.526 63.6062 281.593 63.5136 281.638 63.4101C281.683 63.3066 281.706 63.1946 281.704 63.0817V55.034H284.209C284.432 55.0401 284.647 54.9594 284.811 54.8091C284.889 54.7353 284.95 54.646 284.991 54.547C285.032 54.4479 285.052 54.3414 285.049 54.2342C285.051 54.1254 285.03 54.0174 284.989 53.9165C284.949 53.8156 284.888 53.7239 284.811 53.6469C284.725 53.5678 284.625 53.507 284.515 53.4683C284.405 53.4297 284.288 53.4139 284.172 53.422H284.147ZM296.134 62.8442C296.152 62.9518 296.152 63.0615 296.134 63.1691C296.14 63.2803 296.122 63.3914 296.081 63.4949C296.04 63.5984 295.977 63.6919 295.896 63.769C295.749 63.9032 295.557 63.9788 295.358 63.9814C295.191 63.9832 295.028 63.9305 294.894 63.8314C294.761 63.7269 294.657 63.5889 294.594 63.4316L293.754 61.4696H289.207L288.381 63.4316C288.33 63.5956 288.229 63.7397 288.093 63.8439C287.959 63.9325 287.802 63.9802 287.642 63.9814C287.541 63.9906 287.439 63.9774 287.344 63.9429C287.248 63.9083 287.162 63.8532 287.09 63.7815C286.965 63.6409 286.897 63.4576 286.903 63.2691C286.892 63.1778 286.892 63.0855 286.903 62.9942L290.66 53.9218C290.726 53.7484 290.844 53.5999 290.999 53.4969C291.14 53.395 291.313 53.3463 291.487 53.3595C291.658 53.3577 291.825 53.4102 291.963 53.5094C292.11 53.6085 292.221 53.7535 292.276 53.9218L296.134 62.8442ZM293.128 59.8701L291.525 56.1212L289.934 59.8701H293.128ZM308.16 53.422C308.055 53.4167 307.95 53.434 307.853 53.4729C307.756 53.5117 307.668 53.5711 307.596 53.6469C307.454 53.7996 307.378 54.0013 307.383 54.2092V60.9448L301.771 53.7219C301.692 53.6171 301.583 53.5386 301.458 53.4969C301.33 53.4481 301.194 53.4227 301.057 53.422C300.834 53.4205 300.618 53.5056 300.456 53.6594C300.377 53.7379 300.316 53.8316 300.275 53.9347C300.234 54.0379 300.215 54.1483 300.218 54.2592V63.1441C300.214 63.3482 300.29 63.5458 300.431 63.694C300.499 63.7685 300.582 63.8273 300.675 63.8662C300.768 63.9051 300.869 63.9231 300.97 63.9189C301.074 63.9218 301.178 63.9034 301.275 63.8647C301.372 63.826 301.46 63.7679 301.533 63.694C301.605 63.6223 301.662 63.5364 301.698 63.4416C301.735 63.3469 301.751 63.2456 301.746 63.1441V56.4586L307.408 63.6815C307.482 63.7705 307.583 63.8321 307.696 63.8564C307.812 63.9004 307.936 63.9216 308.06 63.9189C308.171 63.9248 308.282 63.9066 308.386 63.8656C308.49 63.8246 308.584 63.7618 308.661 63.6815C308.743 63.6022 308.807 63.5068 308.85 63.4015C308.893 63.2961 308.914 63.1829 308.911 63.0692V54.2092C308.916 54.0013 308.84 53.7996 308.698 53.6469C308.571 53.5112 308.396 53.4305 308.21 53.422H308.16ZM320.811 53.422H314.06C313.837 53.4158 313.622 53.4965 313.458 53.6469C313.378 53.7191 313.316 53.8081 313.274 53.9076C313.233 54.007 313.215 54.1143 313.22 54.2217C313.215 54.3309 313.234 54.4399 313.275 54.5412C313.316 54.6426 313.379 54.7339 313.458 54.8091C313.622 54.9594 313.837 55.0401 314.06 55.034H316.565V63.0817C316.564 63.1934 316.585 63.3041 316.628 63.4072C316.671 63.5103 316.735 63.6036 316.815 63.6815C316.989 63.841 317.218 63.9262 317.454 63.9189C317.573 63.9249 317.692 63.9069 317.804 63.8661C317.916 63.8254 318.018 63.7626 318.106 63.6815C318.19 63.6062 318.257 63.5136 318.303 63.4101C318.348 63.3066 318.37 63.1946 318.369 63.0817V55.034H320.874C321.096 55.0401 321.312 54.9594 321.475 54.8091C321.555 54.7369 321.618 54.6478 321.659 54.5484C321.7 54.449 321.719 54.3417 321.713 54.2342C321.718 54.125 321.699 54.0161 321.658 53.9147C321.617 53.8134 321.555 53.722 321.475 53.6469C321.393 53.5709 321.296 53.5119 321.191 53.4733C321.085 53.4347 320.973 53.4173 320.861 53.422H320.811ZM332.699 59.6701C332.542 59.328 332.306 59.0281 332.01 58.7954C331.674 58.5384 331.297 58.3398 330.895 58.2081C330.388 58.0524 329.874 57.9231 329.354 57.8207C328.929 57.7387 328.51 57.6259 328.102 57.4833C327.853 57.3679 327.631 57.2019 327.45 56.9959C327.262 56.7778 327.163 56.4964 327.175 56.2087C327.167 55.9506 327.251 55.6981 327.413 55.4964C327.598 55.2798 327.842 55.1197 328.114 55.034C328.471 54.9042 328.849 54.8448 329.229 54.859C329.517 54.8594 329.804 54.9015 330.081 54.984C330.378 55.0661 330.667 55.1748 330.945 55.3089C331.179 55.4107 331.395 55.55 331.584 55.7213C331.687 55.8136 331.821 55.8628 331.96 55.8587C332.068 55.8587 332.175 55.8365 332.274 55.7935C332.373 55.7505 332.462 55.6876 332.536 55.6088C332.685 55.4594 332.771 55.2577 332.774 55.0465C332.767 54.8996 332.728 54.7561 332.658 54.6264C332.589 54.4967 332.492 54.384 332.373 54.2967C331.974 53.9633 331.515 53.7088 331.02 53.5469C330.445 53.3434 329.839 53.2419 329.229 53.247C328.581 53.2417 327.938 53.3649 327.337 53.6094C326.806 53.8247 326.346 54.184 326.01 54.6466C325.673 55.1251 325.502 55.6996 325.521 56.2836C325.512 56.6815 325.584 57.077 325.734 57.4458C325.878 57.7822 326.091 58.0845 326.36 58.333C326.664 58.5994 327.011 58.8108 327.388 58.9579C327.835 59.1346 328.301 59.2563 328.778 59.3203C329.257 59.3943 329.727 59.5157 330.181 59.6826C330.507 59.7975 330.799 59.9906 331.033 60.245C331.222 60.4731 331.324 60.761 331.321 61.0572C331.321 61.1918 331.294 61.3251 331.243 61.4495C331.191 61.5738 331.116 61.6868 331.02 61.782C330.806 61.9979 330.545 62.1605 330.256 62.2569C329.92 62.3837 329.563 62.4473 329.204 62.4443C328.715 62.4587 328.228 62.3693 327.776 62.1819C327.354 61.9985 326.962 61.7543 326.611 61.4571C326.476 61.3383 326.303 61.2717 326.122 61.2697C326.012 61.268 325.903 61.2894 325.802 61.3325C325.7 61.3755 325.609 61.4393 325.534 61.5196C325.387 61.6703 325.307 61.8723 325.308 62.0819C325.304 62.2179 325.339 62.3521 325.408 62.4693C325.47 62.6066 325.565 62.7267 325.684 62.8192C326.149 63.2406 326.694 63.5637 327.287 63.769C327.907 63.9626 328.554 64.0555 329.204 64.0439C329.85 64.0501 330.489 63.9224 331.083 63.669C331.631 63.4423 332.111 63.0761 332.473 62.6068C332.828 62.1355 333.013 61.5589 332.999 60.9698C333 60.5327 332.915 60.0997 332.749 59.6951L332.699 59.6701ZM103.317 18.5571H100.198V15.2955C100.205 14.9304 100.071 14.5765 99.8223 14.3083C99.7009 14.1741 99.5519 14.0677 99.3854 13.9965C99.2188 13.9253 99.0389 13.891 98.8578 13.8959C98.6713 13.8928 98.4862 13.9278 98.3139 13.9987C98.1415 14.0696 97.9856 14.175 97.8556 14.3083C97.7263 14.438 97.6243 14.5921 97.5555 14.7616C97.4866 14.9311 97.4524 15.1127 97.4548 15.2955V18.5571H95.2502C95.0811 18.5528 94.9129 18.5827 94.7558 18.645C94.5986 18.7072 94.4557 18.8006 94.3357 18.9195C94.2086 19.0317 94.1079 19.1705 94.0407 19.326C93.9736 19.4816 93.9417 19.65 93.9474 19.8192C93.9481 19.9876 93.9828 20.154 94.0495 20.3086C94.1163 20.4633 94.2136 20.6028 94.3357 20.719C94.4547 20.8401 94.5971 20.9358 94.7543 21.0002C94.9115 21.0647 95.0802 21.0965 95.2502 21.0938H97.4548V32.0032C97.4027 32.8615 97.5618 33.7195 97.9183 34.5025C98.1635 35.024 98.5608 35.4595 99.0582 35.7521C99.4877 35.9914 99.9601 36.1442 100.449 36.202C100.925 36.202 101.313 36.202 101.701 36.202C102.242 36.1894 102.769 36.0342 103.229 35.7521C103.434 35.6583 103.609 35.5114 103.737 35.3267C103.865 35.142 103.94 34.9263 103.956 34.7024C103.962 34.396 103.855 34.098 103.655 33.8651C103.581 33.7689 103.486 33.6899 103.378 33.6338C103.27 33.5777 103.151 33.5458 103.029 33.5402C102.821 33.5315 102.615 33.5744 102.428 33.6652C102.237 33.7431 102.032 33.7813 101.826 33.7777C101.561 33.7762 101.297 33.7254 101.05 33.6277C100.778 33.5205 100.552 33.3215 100.411 33.0654C100.225 32.6763 100.143 32.2458 100.173 31.8157V21.0938H103.292C103.461 21.0981 103.629 21.0683 103.786 21.006C103.944 20.9437 104.086 20.8503 104.206 20.7315C104.438 20.4987 104.568 20.1845 104.57 19.8567C104.576 19.686 104.547 19.5158 104.484 19.3568C104.422 19.1977 104.327 19.0532 104.206 18.932C104.09 18.8139 103.952 18.72 103.799 18.6556C103.647 18.5913 103.483 18.5578 103.317 18.5571ZM121.38 18.3696C120.958 18.1248 120.478 17.9996 119.99 18.0073C119.185 17.9961 118.387 18.1537 117.647 18.4696C116.947 18.771 116.307 19.1941 115.756 19.7192C115.214 20.2546 114.757 20.87 114.403 21.5437C114.282 21.7837 114.173 22.0298 114.077 22.281V19.7817C114.091 19.408 113.956 19.044 113.701 18.7695C113.571 18.6382 113.415 18.5358 113.242 18.4691C113.069 18.4023 112.884 18.3727 112.699 18.3821C112.519 18.377 112.339 18.4086 112.171 18.4753C112.003 18.5419 111.85 18.642 111.722 18.7695C111.592 18.9028 111.49 19.0613 111.423 19.2354C111.356 19.4095 111.326 19.5955 111.334 19.7817V34.6899C111.329 34.872 111.361 35.0532 111.428 35.2228C111.495 35.3923 111.595 35.5468 111.722 35.6771C111.845 35.813 111.996 35.9203 112.165 35.9916C112.334 36.0628 112.516 36.0963 112.699 36.0895C112.882 36.0963 113.065 36.0628 113.234 35.9916C113.403 35.9203 113.554 35.813 113.676 35.6771C113.806 35.5474 113.908 35.3933 113.977 35.2238C114.045 35.0543 114.08 34.8728 114.077 34.6899V26.3548C114.071 25.5643 114.216 24.7798 114.503 24.043C114.778 23.349 115.163 22.7035 115.643 22.131C116.072 21.6002 116.594 21.1513 117.184 20.8064C117.701 20.504 118.288 20.3404 118.887 20.3316C119.241 20.3179 119.592 20.3863 119.914 20.5315C120.182 20.669 120.478 20.7418 120.779 20.744C121.099 20.7361 121.403 20.6065 121.631 20.3816C121.764 20.2378 121.866 20.0682 121.931 19.8833C121.995 19.6984 122.021 19.5021 122.006 19.3069C121.996 19.1088 121.933 18.9172 121.823 18.7522C121.712 18.5872 121.559 18.455 121.38 18.3696ZM142.925 18.6696C143.056 18.7979 143.16 18.9518 143.228 19.1216C143.297 19.2914 143.331 19.4736 143.326 19.6568V34.7649C143.329 34.9478 143.294 35.1293 143.225 35.2988C143.157 35.4683 143.055 35.6224 142.925 35.7521C142.803 35.888 142.652 35.9953 142.483 36.0666C142.314 36.1378 142.131 36.1712 141.948 36.1645C141.76 36.1709 141.572 36.1375 141.397 36.0664C141.222 35.9954 141.064 35.8882 140.934 35.7521C140.806 35.6218 140.706 35.4673 140.639 35.2977C140.572 35.1282 140.541 34.947 140.545 34.7649V33.3153C140.197 33.8469 139.776 34.3265 139.293 34.7399C138.669 35.2685 137.962 35.6908 137.201 35.9895C136.373 36.3239 135.488 36.4937 134.595 36.4894C133.099 36.5001 131.633 36.065 130.386 35.2397C129.129 34.4199 128.113 33.2813 127.443 31.9407C126.718 30.4589 126.354 28.828 126.378 27.1796C126.344 25.5193 126.718 23.876 127.468 22.3935C128.131 21.0691 129.139 19.9469 130.386 19.1444C131.616 18.3486 133.055 17.9353 134.52 17.9573C135.46 17.9509 136.393 18.1117 137.276 18.4321C138.078 18.7175 138.824 19.1404 139.481 19.6818C139.899 20.0469 140.266 20.4673 140.57 20.9314V19.5943C140.563 19.4119 140.594 19.2301 140.661 19.0602C140.728 18.8903 140.829 18.7361 140.959 18.6071C141.092 18.4767 141.251 18.375 141.426 18.3084C141.6 18.2417 141.787 18.2116 141.973 18.2197C142.154 18.2259 142.332 18.269 142.496 18.3464C142.66 18.4238 142.806 18.5338 142.925 18.6696ZM139.957 30.6661C140.475 29.5951 140.736 28.4187 140.721 27.2296C140.737 26.0524 140.475 24.888 139.957 23.8306C139.489 22.8686 138.781 22.0425 137.902 21.4313C137.006 20.8349 135.948 20.5254 134.871 20.544C133.804 20.5283 132.756 20.8331 131.865 21.4188C130.975 22.0118 130.262 22.8317 129.798 23.7931C129.273 24.8618 129.011 26.0398 129.034 27.2296C129.016 28.4161 129.269 29.5912 129.773 30.6661C130.224 31.6457 130.94 32.4808 131.839 33.0779C132.733 33.6823 133.792 33.9966 134.871 33.9776C135.95 33.9982 137.01 33.6838 137.902 33.0779C138.789 32.4692 139.497 31.637 139.957 30.6661ZM163.757 18.9695C162.662 18.2778 161.38 17.9416 160.086 18.0073C159.274 18.0029 158.467 18.1469 157.706 18.4321C156.969 18.7127 156.276 19.1001 155.652 19.5818C155.051 20.037 154.526 20.5855 154.099 21.2063L153.999 21.3813V19.8567C154.013 19.483 153.877 19.1189 153.623 18.8445C153.496 18.7115 153.342 18.6078 153.171 18.5409C153 18.4739 152.816 18.4454 152.633 18.4571C152.45 18.4502 152.268 18.481 152.098 18.5477C151.928 18.6144 151.773 18.7154 151.644 18.8445C151.513 18.9777 151.411 19.1363 151.344 19.3104C151.277 19.4845 151.247 19.6705 151.255 19.8567V34.7649C151.251 34.947 151.282 35.1282 151.349 35.2977C151.416 35.4673 151.516 35.6218 151.644 35.7521C151.768 35.8896 151.921 35.998 152.092 36.0693C152.263 36.1406 152.448 36.1731 152.633 36.1645C152.816 36.1712 152.999 36.1378 153.168 36.0666C153.336 35.9953 153.488 35.888 153.61 35.7521C153.738 35.6218 153.838 35.4673 153.905 35.2977C153.971 35.1282 154.003 34.947 153.999 34.7649V25.2302C153.991 24.387 154.244 23.562 154.725 22.8683C155.211 22.1535 155.87 21.5731 156.642 21.1813C157.456 20.7545 158.364 20.5355 159.285 20.544C160.166 20.494 161.041 20.7166 161.79 21.1813C162.4 21.5899 162.865 22.1804 163.118 22.8683C163.386 23.6264 163.518 24.4261 163.506 25.2302V34.7649C163.499 35.13 163.633 35.4839 163.882 35.7521C164.007 35.8913 164.162 36.0006 164.336 36.072C164.509 36.1434 164.697 36.175 164.884 36.1645C165.067 36.1712 165.25 36.1378 165.418 36.0666C165.587 35.9953 165.738 35.888 165.861 35.7521C165.989 35.6218 166.089 35.4673 166.155 35.2977C166.222 35.1282 166.254 34.947 166.249 34.7649V25.1677C166.267 23.9325 166.077 22.7032 165.686 21.5312C165.34 20.5003 164.679 19.604 163.794 18.9695H163.757ZM184.462 27.7169C183.899 27.3213 183.284 27.0059 182.634 26.7797C181.957 26.5423 181.243 26.3298 180.517 26.1424C179.79 25.9549 178.976 25.68 178.312 25.4426C177.72 25.251 177.18 24.926 176.734 24.4929C176.342 24.0912 176.122 23.5536 176.12 22.9933C176.086 22.4282 176.275 21.8722 176.646 21.4438C177.019 21.0763 177.474 20.8022 177.974 20.644C178.482 20.4727 179.015 20.3841 179.552 20.3816C180.373 20.3756 181.186 20.5328 181.945 20.8439C182.653 21.1484 183.28 21.615 183.774 22.206C183.983 22.4061 184.26 22.5218 184.55 22.5309C184.853 22.5475 185.151 22.4543 185.389 22.2685C185.536 22.1643 185.654 22.025 185.733 21.8634C185.812 21.7019 185.849 21.5232 185.84 21.3438C185.826 21.0307 185.707 20.7315 185.502 20.494C185.022 19.8938 184.426 19.3965 183.748 19.0319C183.105 18.691 182.418 18.4388 181.707 18.2822C181.044 18.1368 180.368 18.0613 179.69 18.0572C178.619 18.0413 177.556 18.2499 176.571 18.6696C175.679 19.0464 174.902 19.6496 174.316 20.419C173.748 21.1937 173.453 22.1339 173.477 23.0933C173.452 23.8761 173.633 24.6517 174.003 25.3426C174.36 25.9395 174.843 26.4514 175.419 26.8422C176.026 27.2555 176.688 27.5835 177.385 27.8169C178.124 28.0793 178.863 28.3043 179.627 28.5042C180.306 28.6829 180.975 28.8957 181.632 29.1415C182.198 29.3434 182.718 29.658 183.16 30.0662C183.358 30.2661 183.513 30.5047 183.614 30.7671C183.715 31.0294 183.761 31.3099 183.748 31.5908C183.764 31.8822 183.72 32.1737 183.622 32.4483C183.523 32.723 183.37 32.9752 183.172 33.1903C182.791 33.5928 182.305 33.8825 181.769 34.0276C181.239 34.1827 180.693 34.2749 180.141 34.3025C179.094 34.3362 178.055 34.104 177.122 33.6277C176.277 33.177 175.528 32.5657 174.917 31.8282C174.706 31.5785 174.405 31.4215 174.078 31.3909C173.784 31.3563 173.486 31.4271 173.239 31.5908C173.078 31.6782 172.942 31.8038 172.841 31.9563C172.741 32.1089 172.679 32.2838 172.663 32.4656C172.649 32.7978 172.741 33.1259 172.926 33.4028C173.723 34.5292 174.833 35.398 176.12 35.9021C177.317 36.3704 178.592 36.612 179.878 36.6143C180.955 36.622 182.023 36.4181 183.022 36.0145C183.946 35.6445 184.757 35.0417 185.377 34.265C185.973 33.4832 186.287 32.523 186.266 31.5408C186.292 30.7556 186.129 29.9757 185.79 29.2665C185.499 28.6355 185.055 28.0861 184.5 27.6669L184.462 27.7169ZM206.133 32.3156C205.966 32.308 205.799 32.3339 205.642 32.3919C205.484 32.4499 205.341 32.5386 205.219 32.653C204.945 32.9204 204.637 33.1515 204.304 33.3403C203.905 33.5436 203.485 33.7029 203.052 33.8152C202.43 33.9727 201.789 34.0441 201.148 34.0276C199.993 34.0512 198.857 33.7385 197.878 33.1279C196.945 32.5438 196.188 31.7191 195.686 30.741C195.147 29.6766 194.876 28.497 194.897 27.3045C194.873 26.1128 195.153 24.9346 195.711 23.8805C196.244 22.9008 197.02 22.0745 197.966 21.4812C198.966 20.8781 200.117 20.5705 201.285 20.594C201.815 20.5943 202.343 20.6445 202.864 20.744C203.296 20.8072 203.717 20.9291 204.116 21.1063C204.371 21.2413 204.607 21.4094 204.818 21.6062C204.987 21.7692 205.172 21.9157 205.369 22.0436C205.591 22.1775 205.848 22.2427 206.108 22.231C206.272 22.238 206.435 22.2052 206.583 22.1356C206.731 22.066 206.861 21.9615 206.96 21.8311C207.164 21.5755 207.274 21.2581 207.273 20.9314C207.26 20.6382 207.179 20.352 207.035 20.0959C206.892 19.8398 206.69 19.6209 206.446 19.4568C205.778 18.9719 205.02 18.6236 204.216 18.4321C203.173 18.1695 202.099 18.0435 201.022 18.0572C199.398 18.0287 197.799 18.4622 196.413 19.3069C195.095 20.1144 194.021 21.2632 193.306 22.6309C192.551 24.0766 192.168 25.687 192.191 27.317C192.167 28.9522 192.541 30.5688 193.281 32.0282C193.961 33.3966 195.011 34.548 196.312 35.3522C197.686 36.1952 199.272 36.6288 200.884 36.6018C202 36.6124 203.11 36.4566 204.179 36.1395C205.022 35.8975 205.815 35.5082 206.521 34.9898C206.753 34.8431 206.95 34.6473 207.097 34.4161C207.244 34.185 207.338 33.9244 207.373 33.6527C207.387 33.3143 207.271 32.9833 207.047 32.728C206.947 32.5886 206.815 32.4744 206.663 32.3942C206.511 32.3139 206.343 32.2699 206.171 32.2656L206.133 32.3156ZM228.317 23.0308C228.784 24.1342 229.027 25.3194 229.031 26.5173C229.035 26.6905 228.999 26.8622 228.928 27.0201C228.856 27.1779 228.75 27.3178 228.618 27.4295C228.356 27.664 228.017 27.7932 227.666 27.7919H215.139C215.194 28.8276 215.476 29.8387 215.966 30.7535C216.485 31.74 217.264 32.5656 218.221 33.1404C219.238 33.7353 220.399 34.0381 221.578 34.0151C222.292 34.0315 223.004 33.9258 223.682 33.7027C224.228 33.5235 224.744 33.2622 225.211 32.9279C225.599 32.6513 225.96 32.3374 226.288 31.9907C226.546 31.8 226.856 31.6911 227.177 31.6783C227.332 31.6747 227.486 31.704 227.628 31.7643C227.771 31.8247 227.899 31.9146 228.004 32.0282C228.114 32.1354 228.2 32.2639 228.258 32.4057C228.317 32.5475 228.345 32.6997 228.342 32.8529C228.336 33.0586 228.285 33.2604 228.192 33.444C228.099 33.6276 227.966 33.7885 227.803 33.9151C227.046 34.6854 226.155 35.3121 225.173 35.7646C224.083 36.2896 222.888 36.5589 221.678 36.5519C219.991 36.5943 218.322 36.1889 216.843 35.3772C215.495 34.6351 214.387 33.5255 213.649 32.1781C212.865 30.7331 212.472 29.1095 212.509 27.467C212.477 25.692 212.909 23.9392 213.761 22.381C214.477 21.0434 215.547 19.928 216.855 19.1569C218.075 18.4314 219.469 18.0472 220.889 18.0447C221.936 18.0401 222.975 18.2396 223.945 18.6321C224.926 19.0109 225.815 19.5946 226.551 20.3441C227.312 21.1029 227.924 21.9973 228.355 22.9808L228.317 23.0308ZM215.653 24.2804C215.504 24.6853 215.395 25.1039 215.327 25.5301H226.112V25.2676C226.065 24.387 225.751 23.5415 225.211 22.8433C224.68 22.1825 224.008 21.6487 223.244 21.2813C222.488 20.924 221.662 20.7404 220.826 20.744C220.129 20.7459 219.437 20.8729 218.785 21.1188C218.099 21.373 217.476 21.7691 216.956 22.281C216.413 22.825 215.983 23.4705 215.691 24.1805L215.653 24.2804ZM248.572 19.0694C247.474 18.3753 246.187 18.039 244.889 18.1072C244.081 18.1019 243.278 18.2459 242.522 18.5321C241.782 18.8152 241.086 19.2024 240.455 19.6818C239.86 20.1406 239.341 20.6887 238.914 21.3063L238.814 21.4812V19.9567C238.828 19.5829 238.693 19.2189 238.438 18.9445C238.307 18.8144 238.15 18.7129 237.978 18.6462C237.805 18.5795 237.621 18.5492 237.436 18.5571C237.256 18.5519 237.076 18.5836 236.908 18.6502C236.74 18.7168 236.587 18.817 236.459 18.9445C236.327 19.0771 236.223 19.2353 236.154 19.4093C236.085 19.5834 236.053 19.7696 236.058 19.9567V34.8649C236.056 35.0477 236.09 35.2292 236.159 35.3988C236.228 35.5683 236.33 35.7224 236.459 35.8521C236.582 35.9879 236.733 36.0953 236.902 36.1665C237.071 36.2378 237.253 36.2712 237.436 36.2644C237.644 36.2752 237.852 36.2339 238.04 36.1445C238.228 36.055 238.391 35.9201 238.513 35.7521C238.643 35.6224 238.745 35.4683 238.814 35.2988C238.882 35.1293 238.917 34.9478 238.914 34.7649V25.2302C238.908 24.389 239.157 23.5655 239.628 22.8683C240.122 22.1558 240.785 21.5763 241.557 21.1813C242.372 20.753 243.28 20.534 244.2 20.544C245.082 20.4923 245.957 20.715 246.706 21.1813C247.319 21.586 247.785 22.1778 248.033 22.8683C248.306 23.6257 248.442 24.4254 248.434 25.2302V34.7649C248.427 35.13 248.562 35.4839 248.81 35.7521C248.934 35.8896 249.087 35.998 249.258 36.0693C249.43 36.1406 249.614 36.1731 249.8 36.1645C249.983 36.1712 250.165 36.1378 250.334 36.0666C250.503 35.9953 250.654 35.888 250.777 35.7521C250.906 35.6224 251.008 35.4683 251.077 35.2988C251.146 35.1293 251.18 34.9478 251.178 34.7649V25.1677C251.196 23.9325 251.005 22.7032 250.614 21.5312C250.239 20.4847 249.536 19.5865 248.61 18.9695L248.572 19.0694ZM274.652 11.3092C274.783 11.4399 274.887 11.596 274.956 11.7679C275.024 11.9397 275.057 12.1238 275.053 12.3089V34.8024C275.055 34.9852 275.021 35.1668 274.952 35.3363C274.883 35.5058 274.781 35.6599 274.652 35.7896C274.529 35.9254 274.378 36.0328 274.209 36.1041C274.04 36.1753 273.858 36.2087 273.675 36.202C273.486 36.2084 273.298 36.175 273.123 36.1039C272.948 36.0328 272.791 35.9257 272.66 35.7896C272.533 35.6593 272.432 35.5048 272.366 35.3352C272.299 35.1657 272.267 34.9845 272.272 34.8024V33.2528C271.923 33.7948 271.502 34.2867 271.019 34.7149C270.385 35.2419 269.67 35.6638 268.902 35.9645C268.075 36.2989 267.19 36.4687 266.297 36.4644C264.805 36.4726 263.344 36.0376 262.101 35.2147C260.848 34.3937 259.836 33.2552 259.169 31.9157C258.422 30.441 258.048 28.8065 258.08 27.1546C258.048 25.4907 258.422 23.844 259.169 22.356C259.832 21.0281 260.84 19.9018 262.088 19.0944C263.317 18.2986 264.756 17.8854 266.222 17.9073C267.145 17.902 268.061 18.0629 268.927 18.3821C269.727 18.6731 270.472 19.0955 271.132 19.6318C271.567 19.9949 271.95 20.4153 272.272 20.8814V12.059C272.267 11.8769 272.299 11.6957 272.366 11.5261C272.432 11.3565 272.533 11.2021 272.66 11.0718C272.791 10.9356 272.948 10.8285 273.123 10.7574C273.298 10.6864 273.486 10.6529 273.675 10.6594C273.875 10.6689 274.069 10.7233 274.245 10.8185C274.421 10.9137 274.573 11.0473 274.689 11.2092L274.652 11.3092ZM271.721 30.7535C272.247 29.681 272.509 28.4985 272.485 27.3045C272.507 26.1148 272.245 24.9368 271.721 23.868C271.265 22.8984 270.555 22.0694 269.666 21.4687C268.769 20.8761 267.711 20.5709 266.635 20.594C265.568 20.5783 264.52 20.8831 263.629 21.4687C262.733 22.0654 262.018 22.8951 261.562 23.868C261.037 24.9368 260.775 26.1148 260.798 27.3045C260.779 28.4859 261.041 29.6548 261.562 30.7161C262.021 31.6905 262.735 32.5236 263.629 33.1279C264.515 33.7267 265.564 34.0406 266.635 34.0276C267.71 34.0445 268.766 33.7398 269.666 33.1528C270.549 32.5459 271.258 31.7186 271.721 30.7535ZM284.347 12.6463C283.904 12.6235 283.466 12.7416 283.095 12.9837C282.939 13.1116 282.817 13.2749 282.739 13.4598C282.66 13.6447 282.628 13.8457 282.644 14.0459V14.5208C282.623 14.7178 282.65 14.9169 282.722 15.1016C282.794 15.2863 282.909 15.4513 283.057 15.583C283.421 15.8417 283.864 15.9655 284.31 15.9329C284.755 15.9655 285.198 15.8417 285.562 15.583C285.713 15.4525 285.83 15.2881 285.904 15.1033C285.978 14.9186 286.007 14.7188 285.988 14.5208V14.0459C286.009 13.8488 285.982 13.6498 285.91 13.4651C285.838 13.2804 285.723 13.1154 285.575 12.9837C285.223 12.7172 284.789 12.5804 284.347 12.5963V12.6463ZM284.347 18.2322C284.159 18.2257 283.971 18.2592 283.796 18.3302C283.621 18.4013 283.463 18.5084 283.333 18.6446C283.203 18.7738 283.1 18.9278 283.031 19.0975C282.963 19.2671 282.929 19.4488 282.932 19.6318V34.8149C282.929 34.9977 282.964 35.1793 283.032 35.3488C283.101 35.5183 283.203 35.6724 283.333 35.8021C283.463 35.9382 283.621 36.0453 283.796 36.1164C283.971 36.1875 284.159 36.2209 284.347 36.2145C284.53 36.2212 284.713 36.1878 284.882 36.1166C285.05 36.0453 285.202 35.938 285.324 35.8021C285.452 35.6718 285.552 35.5173 285.619 35.3477C285.685 35.1782 285.717 34.997 285.713 34.8149V19.6318C285.718 19.4496 285.686 19.2682 285.62 19.0985C285.553 18.9289 285.452 18.7744 285.324 18.6446C285.206 18.4996 285.057 18.3828 284.888 18.3028C284.719 18.2228 284.534 18.1816 284.347 18.1822V18.2322ZM306.043 19.0195C304.945 18.3253 303.658 17.989 302.36 18.0572C301.551 18.053 300.749 18.197 299.993 18.4821C299.255 18.7627 298.563 19.1501 297.938 19.6318C297.337 20.087 296.812 20.6355 296.385 21.2563L296.285 21.4313V19.9067C296.299 19.533 296.164 19.1689 295.909 18.8945C295.779 18.7632 295.622 18.6608 295.449 18.594C295.277 18.5273 295.092 18.4976 294.907 18.5071C294.726 18.5019 294.546 18.5336 294.378 18.6002C294.21 18.6668 294.058 18.767 293.93 18.8945C293.799 19.0277 293.697 19.1863 293.63 19.3604C293.564 19.5345 293.533 19.7205 293.542 19.9067V34.8149C293.537 34.997 293.569 35.1782 293.635 35.3477C293.702 35.5173 293.802 35.6718 293.93 35.8021C294.053 35.938 294.204 36.0453 294.372 36.1166C294.541 36.1878 294.724 36.2212 294.907 36.2145C295.09 36.2212 295.273 36.1878 295.441 36.1166C295.61 36.0453 295.761 35.938 295.884 35.8021C296.013 35.6724 296.115 35.5183 296.184 35.3488C296.253 35.1793 296.287 34.9977 296.285 34.8149V25.2801C296.277 24.4369 296.531 23.612 297.011 22.9183C297.497 22.2035 298.156 21.6231 298.928 21.2313C299.742 20.803 300.65 20.5839 301.571 20.594C302.452 20.5472 303.326 20.7695 304.076 21.2313C304.659 21.6501 305.097 22.2398 305.329 22.9183C305.602 23.6757 305.737 24.4754 305.73 25.2801V34.8149C305.722 35.18 305.857 35.5339 306.105 35.8021C306.229 35.9396 306.383 36.048 306.554 36.1193C306.725 36.1906 306.91 36.2231 307.095 36.2145C307.28 36.2231 307.465 36.1906 307.636 36.1193C307.807 36.048 307.96 35.9396 308.085 35.8021C308.212 35.6718 308.312 35.5173 308.379 35.3477C308.446 35.1782 308.478 34.997 308.473 34.8149V25.2177C308.491 23.9825 308.301 22.7532 307.909 21.5812C307.58 20.5354 306.927 19.6208 306.043 18.9695V19.0195ZM332.974 19.7068V34.7024C333.035 36.3403 332.627 37.9615 331.797 39.376C331.038 40.5973 329.93 41.5636 328.615 42.1502C327.207 42.771 325.682 43.0821 324.143 43.0625C323.38 43.0532 322.621 42.9653 321.876 42.8C321.128 42.6481 320.394 42.4306 319.684 42.1502C319.202 42.0015 318.769 41.7251 318.431 41.3505C318.145 41.1594 317.927 40.8842 317.805 40.5632C317.762 40.4259 317.749 40.2808 317.769 40.1382C317.788 39.9956 317.839 39.8591 317.918 39.7384C318.003 39.5939 318.123 39.4733 318.268 39.388C318.412 39.3027 318.576 39.2556 318.744 39.2511C319.177 39.2823 319.601 39.388 319.997 39.5635C320.223 39.5635 320.561 39.7509 321.012 39.9009C321.502 40.0807 322.004 40.2268 322.515 40.3383C323.062 40.4615 323.62 40.5244 324.181 40.5257C324.99 40.5797 325.802 40.4727 326.57 40.211C327.338 39.9493 328.046 39.538 328.653 39.0011C329.171 38.4705 329.575 37.8399 329.84 37.148C330.105 36.456 330.225 35.7174 330.193 34.9773V33.0154C330.064 33.2694 329.913 33.5118 329.743 33.7402C329.322 34.3089 328.805 34.7995 328.214 35.1898C327.6 35.621 326.925 35.958 326.21 36.1895C325.478 36.4282 324.713 36.5505 323.943 36.5519C322.416 36.5601 320.919 36.126 319.634 35.3022C318.349 34.4927 317.306 33.3532 316.615 32.0032C315.844 30.536 315.456 28.8984 315.488 27.2421C315.456 25.5737 315.844 23.9241 316.615 22.4435C317.306 21.111 318.339 19.9855 319.609 19.1819C320.887 18.3812 322.371 17.9687 323.88 17.9947C324.831 17.9845 325.774 18.1541 326.661 18.4946C327.464 18.7864 328.213 19.2086 328.878 19.7442C329.378 20.1542 329.82 20.6291 330.193 21.1563V19.6068C330.189 19.4236 330.222 19.2415 330.291 19.0716C330.36 18.9018 330.463 18.7479 330.594 18.6196C330.722 18.492 330.875 18.3919 331.043 18.3253C331.211 18.2587 331.391 18.227 331.571 18.2322C331.758 18.224 331.944 18.2542 332.119 18.3209C332.294 18.3875 332.452 18.4892 332.586 18.6196C332.722 18.7543 332.827 18.9167 332.894 19.0957C332.961 19.2748 332.988 19.4662 332.974 19.6568V19.7068ZM330.369 27.3045C330.389 26.1001 330.119 24.9085 329.58 23.8306C329.086 22.8546 328.337 22.0298 327.413 21.4438C326.462 20.8695 325.367 20.5749 324.256 20.594C323.145 20.5743 322.052 20.8783 321.112 21.4687C320.178 22.0492 319.427 22.8808 318.945 23.868C318.416 24.9358 318.15 26.1138 318.168 27.3045C318.154 28.4869 318.42 29.6559 318.945 30.7161C319.43 31.7045 320.18 32.5394 321.112 33.1279C322.048 33.7312 323.142 34.0443 324.256 34.0276C325.371 34.0447 326.467 33.741 327.413 33.1528C328.336 32.56 329.085 31.7317 329.58 30.7535C330.129 29.6705 330.401 28.4681 330.369 27.2546V27.3045Z" fill="#272127"></path><path d="M33.9964 60.6449V49.8855C31.3991 47.9984 29.3433 45.4648 28.0339 42.5376C27.6498 41.6725 27.6253 40.6907 27.9658 39.8075C28.3063 38.9244 28.984 38.212 29.8502 37.8265C30.2786 37.6347 30.7407 37.5291 31.2101 37.5158C31.6795 37.5024 32.1469 37.5816 32.5856 37.7488C33.0243 37.9159 33.4256 38.1678 33.7666 38.4899C34.1075 38.812 34.3814 39.1981 34.5726 39.626C35.1727 40.9756 36.0353 42.1929 37.1104 43.2075C38.1855 44.2222 39.4517 45.0139 40.8357 45.5368C42.212 46.0671 43.6799 46.3203 45.1548 46.2817C46.6297 46.2431 48.0823 45.9134 49.4288 45.3118C50.78 44.713 51.9985 43.8523 53.0135 42.7796C54.0285 41.707 54.8197 40.4439 55.3412 39.0637C55.8728 37.6907 56.1266 36.2262 56.0879 34.7549C56.0492 33.2836 55.7188 31.8344 55.1157 30.4911C54.7206 29.6294 54.6847 28.6464 55.0159 27.7583C55.3471 26.8701 56.0183 26.1496 56.8819 25.755C57.7492 25.3719 58.7333 25.3475 59.6186 25.6871C60.5038 26.0268 61.218 26.7028 61.6043 27.567C62.5955 29.765 63.1381 32.1379 63.2004 34.5473C63.2628 36.9566 62.8437 39.3543 61.9676 41.6004C61.1107 43.8534 59.8134 45.914 58.1511 47.6624C56.4888 49.4108 54.4947 50.8122 52.2848 51.785C49.921 52.8421 47.3594 53.3872 44.769 53.3845C43.531 53.3764 42.2971 53.2424 41.0863 52.9846V60.5949C41.0863 61.5428 40.7088 62.4518 40.037 63.1221C39.3651 63.7923 38.4539 64.1689 37.5037 64.1689C36.5753 64.1495 35.6906 63.7713 35.0363 63.1138C34.382 62.4564 34.0092 61.5712 33.9964 60.6449ZM6.3383 23.5682C6.74198 23.8076 7.18903 23.9651 7.65386 24.0319C8.11868 24.0987 8.59215 24.0733 9.04712 23.9572C9.5021 23.8411 9.92964 23.6366 10.3053 23.3554C10.6809 23.0742 10.9972 22.7219 11.2361 22.3185C13.6039 18.229 16.8929 14.7451 20.8432 12.1425C24.7935 9.53981 29.2966 7.88978 33.9964 7.32287V21.8437C30.2365 21.088 26.3339 21.525 22.8355 23.0933C18.3852 25.0774 14.9051 28.7409 13.1582 33.2807C11.4112 37.8204 11.5398 42.866 13.5159 47.3113C13.7941 47.9446 14.2518 48.4831 14.8326 48.8605C15.4134 49.2379 16.0921 49.4378 16.7852 49.4356C17.2863 49.4355 17.7816 49.329 18.2383 49.1232C19.1045 48.7378 19.7822 48.0254 20.1227 47.1422C20.4631 46.2591 20.4387 45.2773 20.0546 44.4121C18.8535 41.6963 18.7773 38.617 19.8426 35.8454C20.9079 33.0738 23.0283 30.8348 25.7416 29.6164C28.462 28.4079 31.5511 28.3223 34.3346 29.3783C37.118 30.4342 39.3696 32.5459 40.5977 35.2523C40.7877 35.6812 41.0608 36.0686 41.4012 36.392C41.7417 36.7154 42.1428 36.9686 42.5816 37.1369C43.0204 37.3053 43.4882 37.3856 43.9581 37.3731C44.4281 37.3606 44.891 37.2556 45.3201 37.0642C46.1864 36.6788 46.864 35.9664 47.2045 35.0832C47.545 34.2001 47.5205 33.2183 47.1365 32.3531C45.8331 29.4258 43.7812 26.8918 41.1865 25.0052V7.32287C45.8857 7.89166 50.388 9.54245 54.338 12.1449C58.288 14.7474 61.5775 18.2302 63.9468 22.3185C64.2606 22.8633 64.7132 23.3155 65.2588 23.6294C65.8044 23.9432 66.4235 24.1075 67.0533 24.1055C67.6797 24.108 68.2948 23.9395 68.832 23.6181C69.2399 23.385 69.5975 23.0738 69.8845 22.7024C70.1715 22.331 70.3822 21.9067 70.5044 21.4539C70.6266 21.0011 70.658 20.5286 70.5967 20.0637C70.5354 19.5988 70.3827 19.1505 70.1473 18.7446C66.8344 13.053 62.084 8.3272 56.3695 5.03827C50.655 1.74933 44.1762 0.0121756 37.5789 0C30.9811 0.00966471 24.5013 1.74575 18.7864 5.03493C13.0715 8.32411 8.32146 13.0513 5.01052 18.7446C4.55526 19.562 4.43931 20.5249 4.68754 21.4267C4.93577 22.3285 5.5284 23.0973 6.3383 23.5682ZM71.5753 33.8652C70.6252 33.8652 69.7139 34.2417 69.0421 34.912C68.3702 35.5822 67.9928 36.4912 67.9928 37.4391C67.9861 45.4852 64.7801 53.2001 59.0782 58.8907C53.3763 64.5813 45.6443 67.7829 37.5789 67.7928C29.5124 67.7829 21.7791 64.5817 16.0752 58.8915C10.3713 53.2012 7.16245 45.4864 7.15251 37.4391C7.15251 36.4934 6.77679 35.5862 6.10764 34.9164C5.4385 34.2465 4.53051 33.8685 3.58254 33.8652C3.11208 33.8652 2.64621 33.9576 2.21156 34.1372C1.77691 34.3168 1.38197 34.5801 1.0493 34.912C0.716631 35.2438 0.452752 35.6378 0.272713 36.0714C0.0926745 36.505 0 36.9698 0 37.4391C0 47.3819 3.9592 56.9174 11.0066 63.9479C18.054 70.9785 27.6124 74.9282 37.5789 74.9282C47.5454 74.9282 57.1038 70.9785 64.1512 63.9479C71.1986 56.9174 75.1578 47.3819 75.1578 37.4391C75.1578 36.4912 74.7804 35.5822 74.1085 34.912C73.4366 34.2417 72.5254 33.8652 71.5753 33.8652Z" fill="#FF6900"></path></svg> 