<?xml version="1.0" encoding="UTF-8"?> <svg xmlns="http://www.w3.org/2000/svg" width="76.36" height="75" viewBox="0 0 76.36 75"><path d="M34,60.64V49.89a18.42,18.42,0,0,1-6-7.35A3.59,3.59,0,0,1,28,39.81a3.52,3.52,0,0,1,1.88-2,3.38,3.38,0,0,1,1.36-.31,3.43,3.43,0,0,1,1.38.23,3.73,3.73,0,0,1,1.18.74,3.51,3.51,0,0,1,.8,1.14,11.19,11.19,0,0,0,6.27,5.91,11.12,11.12,0,0,0,4.31.74,11.27,11.27,0,0,0,4.28-1A11.15,11.15,0,0,0,53,42.78a11.39,11.39,0,0,0,3.08-8,11.18,11.18,0,0,0-1-4.26,3.5,3.5,0,0,1-.1-2.73,3.51,3.51,0,0,1,4.6-2.07,3.55,3.55,0,0,1,2,1.88,17.89,17.89,0,0,1,1.6,7A18.44,18.44,0,0,1,44.77,53.38a17.5,17.5,0,0,1-3.68-.4v7.61A3.53,3.53,0,0,1,35,63.11,3.52,3.52,0,0,1,34,60.64ZM6.34,23.57A3.42,3.42,0,0,0,7.65,24,3.67,3.67,0,0,0,9.05,24a3.75,3.75,0,0,0,1.26-.6,3.84,3.84,0,0,0,.93-1A30.48,30.48,0,0,1,34,7.32V21.84A18.39,18.39,0,0,0,13.52,47.31a3.52,3.52,0,0,0,1.31,1.55,3.57,3.57,0,0,0,2,.58,3.48,3.48,0,0,0,1.45-.32,3.57,3.57,0,0,0,1.81-4.71A11.25,11.25,0,0,1,40.6,35.25a3.58,3.58,0,0,0,2,1.89,3.43,3.43,0,0,0,1.38.23,3.38,3.38,0,0,0,1.36-.31,3.52,3.52,0,0,0,1.88-2,3.59,3.59,0,0,0-.06-2.73,18.35,18.35,0,0,0-6-7.34V7.32A30.52,30.52,0,0,1,64,22.32a3.5,3.5,0,0,0,1.31,1.31,3.61,3.61,0,0,0,1.79.48,3.48,3.48,0,0,0,1.78-.49,3.6,3.6,0,0,0,1.77-3.56,3.7,3.7,0,0,0-.45-1.32A37.68,37.68,0,0,0,5,18.74a3.58,3.58,0,0,0,1.33,4.83Zm65.24,10.3A3.57,3.57,0,0,0,68,37.44a30.42,30.42,0,0,1-60.84,0,3.57,3.57,0,0,0-3.57-3.57,3.59,3.59,0,0,0-2.53,1,3.65,3.65,0,0,0-.78,1.16A3.6,3.6,0,0,0,0,37.44a37.58,37.58,0,0,0,75.16,0,3.57,3.57,0,0,0-3.58-3.57Z" fill="#ff6900"></path></svg> 