<?xml version="1.0" encoding="UTF-8"?> <svg xmlns="http://www.w3.org/2000/svg" width="333" height="75" viewBox="0 0 333 75" fill="none"><path d="M101.488 53.6595C101.568 53.7346 101.63 53.826 101.671 53.9273C101.712 54.0286 101.731 54.1376 101.726 54.2468C101.727 54.3481 101.706 54.4484 101.665 54.5411C101.624 54.6338 101.564 54.7166 101.488 54.7842C101.41 54.8643 101.317 54.9277 101.213 54.9707C101.11 55.0136 100.999 55.0352 100.887 55.0341H96.8034V57.8333H100.211C100.433 57.8271 100.649 57.9078 100.812 58.0582C100.891 58.1333 100.954 58.2247 100.995 58.326C101.036 58.4274 101.055 58.5363 101.05 58.6455C101.051 58.7487 101.03 58.8509 100.989 58.9456C100.948 59.0404 100.888 59.1254 100.812 59.1954C100.649 59.3457 100.433 59.4264 100.211 59.4203H96.8034V63.0817C96.8053 63.1947 96.7828 63.3067 96.7374 63.4102C96.692 63.5137 96.6248 63.6063 96.5404 63.6816C96.4617 63.76 96.3678 63.8215 96.2644 63.8624C96.161 63.9032 96.0503 63.9225 95.9391 63.919C95.824 63.9237 95.7092 63.9051 95.6016 63.8643C95.4939 63.8235 95.3957 63.7613 95.3128 63.6816C95.2342 63.6031 95.1725 63.5094 95.1316 63.4062C95.0906 63.3031 95.0713 63.1926 95.0748 63.0817V54.2593C95.0713 54.1484 95.0906 54.038 95.1316 53.9348C95.1725 53.8316 95.2342 53.7379 95.3128 53.6595C95.4749 53.5057 95.6904 53.4206 95.9141 53.422H100.925C101.136 53.4251 101.338 53.5102 101.488 53.6595ZM106.987 53.422C106.752 53.4161 106.523 53.5011 106.348 53.6595C106.264 53.7397 106.199 53.837 106.155 53.9448C106.112 54.0526 106.093 54.1683 106.098 54.2843V63.0318C106.09 63.2574 106.171 63.4773 106.323 63.6441C106.405 63.7251 106.504 63.788 106.611 63.8289C106.719 63.8698 106.835 63.8877 106.95 63.8815C107.178 63.8862 107.398 63.8009 107.564 63.6441C107.653 63.5698 107.725 63.4759 107.772 63.3698C107.82 63.2637 107.843 63.148 107.839 63.0318V54.2843C107.842 54.1675 107.82 54.0514 107.775 53.9437C107.73 53.836 107.662 53.7391 107.576 53.6595C107.415 53.5117 107.206 53.4274 106.987 53.422ZM120.841 53.422C120.737 53.4184 120.633 53.4365 120.536 53.4752C120.439 53.5139 120.351 53.5724 120.278 53.647C120.141 53.8016 120.069 54.0031 120.077 54.2093V60.9449L114.503 53.722C114.424 53.6171 114.315 53.5387 114.19 53.497C114.062 53.4482 113.926 53.4228 113.789 53.422C113.565 53.4206 113.35 53.5057 113.188 53.6595C113.034 53.8212 112.948 54.0362 112.95 54.2593V63.1442C112.945 63.3483 113.022 63.5459 113.163 63.6941C113.232 63.7673 113.315 63.8252 113.408 63.864C113.501 63.9027 113.601 63.9215 113.701 63.919C113.806 63.9243 113.911 63.9069 114.008 63.8681C114.105 63.8293 114.193 63.7699 114.265 63.6941C114.339 63.623 114.397 63.5375 114.436 63.4428C114.475 63.3481 114.493 63.2465 114.491 63.1442V56.4587L120.14 63.6816C120.213 63.7706 120.315 63.8322 120.428 63.8565C120.548 63.9014 120.676 63.9226 120.804 63.919C120.915 63.9225 121.026 63.9032 121.129 63.8624C121.232 63.8215 121.326 63.76 121.405 63.6816C121.561 63.516 121.646 63.2964 121.643 63.0692V54.2093C121.648 54.0014 121.572 53.7997 121.43 53.647C121.356 53.567 121.264 53.5052 121.162 53.4662C121.06 53.4272 120.95 53.4121 120.841 53.422ZM134.808 62.8443C134.846 62.9487 134.867 63.0583 134.871 63.1692C134.874 63.28 134.854 63.3902 134.813 63.4933C134.772 63.5964 134.711 63.6901 134.633 63.769C134.481 63.9042 134.285 63.9796 134.082 63.9815C133.919 63.9815 133.761 63.9289 133.631 63.8315C133.494 63.7273 133.386 63.5896 133.318 63.4316L132.478 61.4697H127.944L127.117 63.4316C127.062 63.5966 126.957 63.7405 126.816 63.844C126.687 63.9322 126.535 63.9801 126.378 63.9815C126.277 63.9915 126.175 63.9788 126.08 63.9442C125.984 63.9096 125.898 63.854 125.827 63.7815C125.701 63.641 125.634 63.4576 125.639 63.2692C125.622 63.1783 125.622 63.0851 125.639 62.9943L129.397 53.9219C129.458 53.7463 129.578 53.5965 129.735 53.497C129.875 53.392 130.049 53.3429 130.224 53.3596C130.394 53.361 130.559 53.4132 130.7 53.5095C130.844 53.6092 130.95 53.7545 131 53.9219L134.808 62.8443ZM131.802 59.8702L130.199 56.1213L128.62 59.8702H131.802ZM146.833 53.422C146.731 53.4178 146.628 53.4356 146.533 53.4745C146.438 53.5133 146.353 53.5721 146.282 53.647C146.141 53.7997 146.064 54.0014 146.069 54.2093V60.9449L140.445 53.722C140.371 53.6175 140.266 53.5388 140.144 53.497C140.016 53.4504 139.88 53.425 139.744 53.422C139.52 53.4206 139.304 53.5057 139.142 53.6595C139.064 53.7379 139.002 53.8316 138.961 53.9348C138.92 54.038 138.901 54.1484 138.904 54.2593V63.1442C138.9 63.2445 138.915 63.3447 138.95 63.4391C138.984 63.5334 139.037 63.6201 139.105 63.6941C139.176 63.7676 139.262 63.8256 139.357 63.8644C139.451 63.9031 139.553 63.9217 139.656 63.919C139.76 63.9219 139.864 63.9035 139.961 63.8648C140.058 63.8261 140.146 63.768 140.22 63.6941C140.36 63.5459 140.437 63.3483 140.433 63.1442V56.4587L146.082 63.6816C146.163 63.7682 146.267 63.829 146.383 63.8565C146.498 63.9014 146.622 63.9226 146.746 63.919C146.857 63.9225 146.968 63.9032 147.071 63.8624C147.174 63.8215 147.268 63.76 147.347 63.6816C147.427 63.6012 147.489 63.5054 147.53 63.4001C147.571 63.2947 147.59 63.1821 147.585 63.0692V54.2093C147.59 54.106 147.574 54.0027 147.538 53.9059C147.501 53.8091 147.445 53.721 147.372 53.647C147.306 53.5741 147.224 53.5162 147.134 53.4774C147.043 53.4386 146.945 53.4197 146.846 53.422H146.833ZM159.898 61.8946C159.699 61.8706 159.498 61.9099 159.322 62.0071C159.053 62.1457 158.767 62.2466 158.47 62.307C158.179 62.3779 157.881 62.4115 157.581 62.4069C157.099 62.4148 156.619 62.3343 156.166 62.1695C155.738 62.0231 155.349 61.7841 155.026 61.4697C154.688 61.1382 154.428 60.7374 154.262 60.295C154.072 59.7747 153.978 59.2242 153.986 58.6705C153.982 58.1682 154.067 57.6691 154.237 57.196C154.392 56.7572 154.64 56.3567 154.963 56.0213C155.28 55.6935 155.665 55.4378 156.09 55.2715C156.563 55.0798 157.071 54.9863 157.581 54.9966C157.889 54.9947 158.197 55.0325 158.495 55.1091C158.78 55.187 159.057 55.2916 159.322 55.4215C159.501 55.5084 159.701 55.5431 159.898 55.5214C159.992 55.5153 160.084 55.4886 160.166 55.4433C160.248 55.3979 160.319 55.335 160.374 55.259C160.456 55.1612 160.517 55.0472 160.551 54.9244C160.586 54.8016 160.594 54.6728 160.575 54.5467C160.559 54.4242 160.511 54.3079 160.436 54.2093C160.362 54.1107 160.263 54.0332 160.149 53.9844C159.755 53.7665 159.334 53.6026 158.896 53.497C158.458 53.3854 158.008 53.3308 157.556 53.3346C156.819 53.3298 156.088 53.4655 155.401 53.7345C154.764 53.9988 154.182 54.3803 153.685 54.8591C153.195 55.3364 152.811 55.9112 152.558 56.5461C152.288 57.2218 152.152 57.9432 152.157 58.6705C152.142 59.4671 152.291 60.2583 152.596 60.9948C152.863 61.6376 153.269 62.2136 153.786 62.6819C154.283 63.1371 154.867 63.4895 155.502 63.719C156.16 63.9564 156.856 64.0749 157.556 64.069C157.854 64.0693 158.152 64.0442 158.445 63.994C158.743 63.9483 159.037 63.8773 159.322 63.7815C159.601 63.6865 159.872 63.5738 160.136 63.4441C160.247 63.3975 160.344 63.3238 160.418 63.2299C160.493 63.136 160.542 63.0249 160.562 62.9068C160.586 62.7807 160.58 62.6509 160.545 62.5274C160.51 62.4039 160.448 62.29 160.362 62.1945C160.253 62.0438 160.092 61.9373 159.911 61.8946H159.898ZM165.798 53.422C165.563 53.4161 165.334 53.5011 165.159 53.6595C165.078 53.7416 165.014 53.8392 164.971 53.9465C164.928 54.0538 164.907 54.1687 164.909 54.2843V63.0318C164.901 63.2574 164.982 63.4773 165.134 63.6441C165.216 63.7251 165.314 63.788 165.422 63.8289C165.53 63.8698 165.645 63.8877 165.761 63.8815C165.992 63.8843 166.216 63.7994 166.387 63.6441C166.472 63.5669 166.54 63.4722 166.586 63.3665C166.631 63.2609 166.653 63.1467 166.65 63.0318V54.2843C166.653 54.1675 166.631 54.0514 166.586 53.9437C166.541 53.836 166.473 53.7391 166.387 53.6595C166.242 53.525 166.058 53.4415 165.861 53.422H165.798ZM179.853 62.8443C179.891 62.9487 179.912 63.0583 179.915 63.1692C179.921 63.2804 179.903 63.3915 179.862 63.495C179.821 63.5985 179.758 63.692 179.677 63.769C179.53 63.9033 179.338 63.9789 179.139 63.9815C178.972 63.9833 178.809 63.9306 178.675 63.8315C178.538 63.7273 178.43 63.5896 178.362 63.4316L177.535 61.4697H173.001L172.124 63.4316C172.069 63.5966 171.964 63.7405 171.823 63.844C171.695 63.9336 171.542 63.9816 171.385 63.9815C171.284 63.9915 171.182 63.9788 171.087 63.9442C170.991 63.9096 170.905 63.854 170.834 63.7815C170.708 63.641 170.641 63.4576 170.646 63.2692C170.629 63.1783 170.629 63.0851 170.646 62.9943L174.404 53.9219C174.469 53.7485 174.588 53.5999 174.742 53.497C174.882 53.392 175.056 53.3429 175.231 53.3596C175.401 53.3594 175.567 53.4118 175.707 53.5095C175.851 53.6092 175.957 53.7545 176.007 53.9219L179.853 62.8443ZM176.846 59.8702L175.243 56.1213L173.665 59.8702H176.846ZM189.761 62.282H185.703V54.2593C185.704 54.1463 185.682 54.0343 185.637 53.9308C185.591 53.8273 185.524 53.7348 185.44 53.6595C185.279 53.5117 185.069 53.4274 184.851 53.422C184.615 53.4161 184.386 53.5011 184.212 53.6595C184.129 53.7354 184.064 53.8284 184.021 53.9319C183.977 54.0355 183.957 54.1472 183.961 54.2593V63.0817C183.958 63.1926 183.977 63.3031 184.018 63.4062C184.059 63.5094 184.121 63.6031 184.199 63.6816C184.278 63.76 184.372 63.8215 184.475 63.8624C184.579 63.9032 184.69 63.9225 184.801 63.919H189.811C190.033 63.9251 190.249 63.8444 190.412 63.6941C190.491 63.6179 190.552 63.5264 190.593 63.4253C190.634 63.3242 190.654 63.2157 190.65 63.1067C190.655 62.9975 190.637 62.8886 190.595 62.7872C190.554 62.6859 190.492 62.5946 190.412 62.5194C190.328 62.4387 190.227 62.376 190.118 62.3352C190.008 62.2944 189.891 62.2763 189.774 62.282H189.761ZM209.703 61.8946C209.504 61.8697 209.302 61.9091 209.127 62.0071C208.856 62.142 208.57 62.2427 208.275 62.307C207.984 62.3771 207.685 62.4107 207.386 62.4069C206.899 62.4135 206.416 62.3331 205.958 62.1695C205.53 62.0231 205.141 61.7841 204.818 61.4697C204.488 61.1344 204.232 60.7343 204.066 60.295C203.87 59.7763 203.777 59.2247 203.791 58.6705C203.781 58.1677 203.866 57.6675 204.041 57.196C204.197 56.7602 204.44 56.3605 204.755 56.0213C205.077 55.6932 205.466 55.4376 205.895 55.2715C206.368 55.0798 206.875 54.9863 207.386 54.9966C207.694 54.9955 208.001 55.0333 208.3 55.1091C208.585 55.187 208.862 55.2916 209.127 55.4215C209.305 55.5098 209.505 55.5445 209.703 55.5214C209.797 55.5145 209.888 55.4874 209.97 55.4422C210.052 55.3969 210.123 55.3344 210.179 55.259C210.26 55.1606 210.318 55.0461 210.35 54.9232C210.383 54.8003 210.388 54.6719 210.367 54.5467C210.353 54.4251 210.308 54.3092 210.235 54.2105C210.163 54.1119 210.066 54.0339 209.953 53.9844C209.559 53.7689 209.138 53.6051 208.701 53.497C208.263 53.3869 207.812 53.3323 207.361 53.3346C206.623 53.3298 205.892 53.4655 205.206 53.7345C204.563 53.9958 203.976 54.3776 203.477 54.8591C202.995 55.343 202.612 55.916 202.35 56.5461C202.085 57.2227 201.953 57.944 201.962 58.6705C201.94 59.4676 202.089 60.2602 202.4 60.9948C202.663 61.6368 203.065 62.2128 203.578 62.6819C204.077 63.1409 204.665 63.4938 205.306 63.719C205.964 63.9574 206.66 64.0759 207.361 64.069C207.659 64.0688 207.956 64.0438 208.25 63.994C208.544 63.9483 208.833 63.8772 209.114 63.7815C209.396 63.6842 209.672 63.5716 209.941 63.4441C210.048 63.3931 210.143 63.3181 210.217 63.225C210.291 63.1318 210.342 63.0229 210.367 62.9068C210.384 62.7807 210.376 62.6523 210.341 62.5298C210.307 62.4072 210.247 62.2931 210.166 62.1945C210.054 62.0412 209.889 61.9345 209.703 61.8946ZM223.707 56.5586C223.963 57.2333 224.09 57.9494 224.083 58.6705C224.089 59.3956 223.962 60.1156 223.707 60.7949C223.466 61.4219 223.109 61.9983 222.655 62.4944C222.196 62.9871 221.642 63.3824 221.027 63.6566C220.386 63.9335 219.695 64.074 218.997 64.069C218.291 64.0775 217.591 63.9369 216.943 63.6566C216.333 63.3784 215.784 62.9835 215.327 62.4944C214.873 61.9983 214.516 61.4219 214.275 60.7949C214.021 60.1156 213.893 59.3956 213.899 58.6705C213.892 57.9494 214.02 57.2333 214.275 56.5586C214.516 55.9279 214.873 55.3473 215.327 54.8466C215.785 54.3613 216.334 53.9706 216.943 53.697C217.588 53.4067 218.29 53.2616 218.997 53.2721C219.697 53.2645 220.389 53.4095 221.027 53.697C221.641 53.9674 222.195 54.3584 222.655 54.8466C223.118 55.3453 223.484 55.9259 223.732 56.5586H223.707ZM222.279 58.6705C222.29 58.0127 222.144 57.3617 221.853 56.7711C221.588 56.2321 221.187 55.7713 220.689 55.434C220.187 55.1054 219.597 54.9356 218.997 54.9466C218.389 54.9336 217.791 55.1034 217.281 55.434C216.783 55.7713 216.382 56.2321 216.116 56.7711C215.833 57.3638 215.692 58.014 215.703 58.6705C215.693 59.3269 215.835 59.9768 216.116 60.57C216.385 61.1101 216.786 61.5742 217.281 61.9196C217.791 62.2501 218.389 62.4199 218.997 62.4069C219.597 62.418 220.187 62.2481 220.689 61.9196C221.184 61.5742 221.585 61.1101 221.853 60.57C222.154 59.9819 222.309 59.3305 222.304 58.6705H222.279ZM236.66 53.422C236.557 53.4178 236.454 53.4356 236.359 53.4745C236.264 53.5133 236.179 53.5721 236.108 53.647C236.036 53.721 235.98 53.8091 235.943 53.9059C235.906 54.0027 235.89 54.106 235.895 54.2093V60.9449L230.271 53.722C230.194 53.6147 230.084 53.5356 229.958 53.497C229.834 53.4481 229.703 53.4226 229.57 53.422C229.459 53.4193 229.348 53.4389 229.245 53.4797C229.141 53.5205 229.048 53.5816 228.968 53.6595C228.89 53.7379 228.828 53.8316 228.787 53.9348C228.746 54.038 228.727 54.1484 228.73 54.2593V63.1442C228.726 63.2445 228.741 63.3447 228.776 63.4391C228.81 63.5334 228.863 63.6201 228.931 63.6941C229 63.7667 229.084 63.8242 229.176 63.8629C229.269 63.9016 229.369 63.9207 229.469 63.919C229.576 63.9229 229.682 63.9049 229.781 63.8662C229.88 63.8275 229.97 63.7689 230.046 63.6941C230.186 63.5459 230.263 63.3483 230.259 63.1442V56.4587L235.908 63.6816C235.989 63.7682 236.093 63.829 236.209 63.8565C236.324 63.9014 236.448 63.9226 236.572 63.919C236.683 63.9225 236.794 63.9032 236.897 63.8624C237.001 63.8215 237.094 63.76 237.173 63.6816C237.253 63.6012 237.315 63.5054 237.356 63.4001C237.397 63.2947 237.416 63.1821 237.411 63.0692V54.2093C237.416 54.0014 237.34 53.7997 237.198 53.647C237.133 53.5757 237.054 53.5188 236.965 53.48C236.877 53.4413 236.781 53.4215 236.685 53.422H236.66ZM248.747 58.8205C248.409 58.561 248.027 58.3622 247.62 58.2331C247.114 58.0746 246.6 57.9452 246.079 57.8458C245.675 57.7614 245.278 57.6486 244.889 57.5084C244.592 57.4089 244.322 57.2421 244.1 57.021C243.921 56.7978 243.823 56.5199 243.825 56.2337C243.823 55.9766 243.906 55.7261 244.063 55.5214C244.251 55.3078 244.493 55.1482 244.764 55.0591C245.125 54.9295 245.508 54.8701 245.891 54.8841C246.18 54.8853 246.467 54.9274 246.743 55.0091C247.037 55.089 247.323 55.1979 247.595 55.334C247.833 55.436 248.053 55.5752 248.246 55.7464C248.349 55.8386 248.484 55.8879 248.622 55.8838C248.73 55.8838 248.837 55.8615 248.936 55.8185C249.035 55.7756 249.125 55.7127 249.198 55.6339C249.344 55.4817 249.428 55.2817 249.436 55.0716C249.43 54.9232 249.39 54.7784 249.318 54.6483C249.246 54.5182 249.145 54.4065 249.023 54.3218C248.624 53.9884 248.165 53.7339 247.67 53.572C247.1 53.3684 246.497 53.2668 245.891 53.2721C245.243 53.2644 244.6 53.3877 244 53.6345C243.465 53.8495 243.001 54.2086 242.66 54.6717C242.323 55.1502 242.152 55.7247 242.171 56.3087C242.166 56.7074 242.243 57.1029 242.397 57.4709C242.538 57.8088 242.752 58.1117 243.023 58.3581C243.324 58.6273 243.672 58.8391 244.05 58.9829C244.497 59.1597 244.964 59.2814 245.44 59.3453C245.919 59.4208 246.389 59.5421 246.843 59.7077C247.168 59.8256 247.46 60.0183 247.695 60.2701C247.88 60.4999 247.978 60.7876 247.971 61.0823C247.973 61.2161 247.949 61.3491 247.899 61.4735C247.85 61.5979 247.776 61.7113 247.683 61.8071C247.464 62.0231 247.198 62.1857 246.906 62.282C246.571 62.4111 246.213 62.4748 245.854 62.4694C245.365 62.4838 244.878 62.3943 244.426 62.207C244.008 62.0233 243.62 61.7791 243.273 61.4822C243.135 61.3605 242.957 61.2938 242.772 61.2948C242.664 61.2933 242.557 61.3148 242.457 61.3579C242.358 61.401 242.269 61.4647 242.196 61.5447C242.047 61.6941 241.961 61.8958 241.958 62.107C241.96 62.2423 241.995 62.3751 242.058 62.4944C242.124 62.6291 242.218 62.7484 242.334 62.8443C242.803 63.266 243.353 63.589 243.95 63.794C244.565 63.9877 245.208 64.0805 245.854 64.069C246.504 64.0766 247.148 63.9489 247.745 63.6941C248.294 63.4674 248.773 63.1012 249.136 62.6319C249.49 62.1606 249.676 61.584 249.662 60.9948C249.669 60.5665 249.588 60.1412 249.424 59.7452C249.291 59.3859 249.066 59.0672 248.772 58.8205H248.747ZM261.549 53.4095C261.439 53.4045 261.328 53.4244 261.226 53.4677C261.125 53.5109 261.034 53.5765 260.961 53.6595C260.819 53.8269 260.743 54.0402 260.748 54.2593V59.7952C260.759 60.2649 260.637 60.7284 260.397 61.1323C260.173 61.5056 259.853 61.8121 259.47 62.0195C259.087 62.2311 258.655 62.3388 258.217 62.332C257.779 62.3476 257.344 62.2393 256.965 62.0195C256.59 61.8139 256.281 61.5062 256.075 61.1323C255.839 60.7271 255.722 60.2637 255.737 59.7952V54.2593C255.738 54.1476 255.717 54.0368 255.674 53.9337C255.631 53.8306 255.567 53.7373 255.487 53.6595C255.33 53.5041 255.119 53.4147 254.898 53.4095C254.66 53.407 254.431 53.4966 254.259 53.6595C254.18 53.7379 254.119 53.8316 254.078 53.9348C254.037 54.038 254.018 54.1484 254.021 54.2593V59.7952C254.006 60.557 254.187 61.3099 254.547 61.9821C254.895 62.6112 255.417 63.1274 256.05 63.4691C256.707 63.838 257.451 64.0236 258.205 64.0065C258.95 64.0216 259.686 63.836 260.334 63.4691C260.962 63.1258 261.483 62.6154 261.837 61.9946C262.197 61.3224 262.378 60.5695 262.363 59.8077V54.2718C262.374 54.0517 262.298 53.8362 262.151 53.672C262.081 53.5877 261.992 53.5203 261.893 53.4748C261.793 53.4294 261.684 53.4071 261.574 53.4095H261.549ZM273.199 62.282H269.14V54.2593C269.142 54.1463 269.12 54.0343 269.074 53.9308C269.029 53.8273 268.962 53.7348 268.877 53.6595C268.716 53.5117 268.507 53.4274 268.288 53.422C268.053 53.4161 267.824 53.5011 267.65 53.6595C267.567 53.7354 267.502 53.8284 267.458 53.9319C267.415 54.0355 267.395 54.1472 267.399 54.2593V63.0817C267.396 63.1926 267.415 63.3031 267.456 63.4062C267.497 63.5094 267.558 63.6031 267.637 63.6816C267.716 63.76 267.81 63.8215 267.913 63.8624C268.016 63.9032 268.127 63.9225 268.238 63.919H273.249C273.471 63.9251 273.687 63.8444 273.85 63.6941C273.928 63.6179 273.99 63.5264 274.031 63.4253C274.072 63.3242 274.091 63.2157 274.088 63.1067C274.093 62.9975 274.074 62.8886 274.033 62.7872C273.992 62.6859 273.93 62.5946 273.85 62.5194C273.767 62.4402 273.669 62.3785 273.561 62.3377C273.453 62.2969 273.339 62.278 273.224 62.282H273.199ZM284.147 53.422H277.395C277.285 53.4176 277.175 53.4353 277.072 53.4739C276.968 53.5125 276.874 53.5714 276.794 53.647C276.714 53.7192 276.651 53.8082 276.61 53.9076C276.569 54.0071 276.55 54.1144 276.556 54.2218C276.551 54.331 276.57 54.44 276.611 54.5413C276.652 54.6427 276.714 54.734 276.794 54.8091C276.874 54.8847 276.968 54.9436 277.072 54.9822C277.175 55.0209 277.285 55.0385 277.395 55.0341H279.9V63.0817C279.896 63.1939 279.916 63.3056 279.959 63.4091C280.003 63.5127 280.068 63.6056 280.151 63.6816C280.234 63.7607 280.332 63.8225 280.44 63.8633C280.548 63.9041 280.662 63.923 280.777 63.919C280.898 63.9252 281.019 63.9075 281.133 63.8667C281.247 63.8259 281.352 63.763 281.441 63.6816C281.526 63.6063 281.593 63.5137 281.638 63.4102C281.683 63.3067 281.706 63.1947 281.704 63.0817V55.0341H284.209C284.432 55.0402 284.647 54.9595 284.811 54.8091C284.889 54.7354 284.95 54.6461 284.991 54.547C285.032 54.448 285.052 54.3414 285.049 54.2343C285.05 54.1255 285.03 54.0174 284.989 53.9165C284.949 53.8157 284.888 53.724 284.811 53.647C284.725 53.5679 284.625 53.5071 284.515 53.4684C284.405 53.4297 284.288 53.414 284.172 53.422H284.147ZM296.134 62.8443C296.152 62.9519 296.152 63.0616 296.134 63.1692C296.14 63.2804 296.122 63.3915 296.081 63.495C296.04 63.5985 295.977 63.692 295.896 63.769C295.749 63.9033 295.557 63.9789 295.358 63.9815C295.191 63.9833 295.028 63.9306 294.894 63.8315C294.761 63.727 294.657 63.589 294.594 63.4316L293.754 61.4697H289.207L288.381 63.4316C288.33 63.5957 288.229 63.7398 288.093 63.844C287.959 63.9325 287.802 63.9803 287.642 63.9815C287.541 63.9907 287.439 63.9775 287.344 63.9429C287.248 63.9084 287.162 63.8533 287.09 63.7815C286.964 63.641 286.897 63.4576 286.903 63.2692C286.892 63.1779 286.892 63.0856 286.903 62.9943L290.66 53.9219C290.726 53.7485 290.844 53.5999 290.999 53.497C291.14 53.3951 291.313 53.3464 291.487 53.3596C291.658 53.3577 291.825 53.4103 291.963 53.5095C292.11 53.6086 292.221 53.7536 292.276 53.9219L296.134 62.8443ZM293.128 59.8702L291.525 56.1213L289.934 59.8702H293.128ZM308.16 53.422C308.055 53.4168 307.95 53.4341 307.853 53.473C307.756 53.5118 307.668 53.5712 307.596 53.647C307.454 53.7997 307.378 54.0014 307.383 54.2093V60.9449L301.771 53.722C301.692 53.6171 301.583 53.5387 301.458 53.497C301.33 53.4482 301.194 53.4228 301.057 53.422C300.834 53.4206 300.618 53.5057 300.456 53.6595C300.377 53.7379 300.316 53.8316 300.275 53.9348C300.234 54.038 300.215 54.1484 300.218 54.2593V63.1442C300.214 63.3483 300.29 63.5459 300.431 63.6941C300.499 63.7686 300.582 63.8274 300.675 63.8663C300.768 63.9051 300.869 63.9231 300.97 63.919C301.074 63.9219 301.178 63.9035 301.275 63.8648C301.372 63.8261 301.46 63.768 301.533 63.6941C301.605 63.6224 301.662 63.5364 301.698 63.4417C301.735 63.347 301.751 63.2456 301.746 63.1442V56.4587L307.408 63.6816C307.482 63.7706 307.583 63.8322 307.696 63.8565C307.812 63.9004 307.935 63.9217 308.059 63.919C308.171 63.9248 308.282 63.9067 308.386 63.8657C308.49 63.8247 308.583 63.7619 308.661 63.6816C308.743 63.6023 308.807 63.5069 308.85 63.4016C308.893 63.2962 308.914 63.183 308.911 63.0692V54.2093C308.916 54.0014 308.84 53.7997 308.698 53.647C308.571 53.5113 308.396 53.4306 308.21 53.422H308.16ZM320.811 53.422H314.06C313.837 53.4159 313.622 53.4966 313.458 53.647C313.378 53.7192 313.316 53.8082 313.274 53.9076C313.233 54.0071 313.215 54.1144 313.22 54.2218C313.215 54.331 313.234 54.44 313.275 54.5413C313.316 54.6427 313.379 54.734 313.458 54.8091C313.622 54.9595 313.837 55.0402 314.06 55.0341H316.565V63.0817C316.564 63.1934 316.585 63.3042 316.628 63.4073C316.671 63.5104 316.735 63.6037 316.815 63.6816C316.989 63.841 317.218 63.9263 317.454 63.919C317.573 63.925 317.692 63.907 317.804 63.8662C317.916 63.8254 318.018 63.7626 318.106 63.6816C318.19 63.6063 318.257 63.5137 318.303 63.4102C318.348 63.3067 318.37 63.1947 318.369 63.0817V55.0341H320.874C321.096 55.0402 321.312 54.9595 321.475 54.8091C321.555 54.737 321.618 54.6479 321.659 54.5485C321.7 54.4491 321.719 54.3417 321.713 54.2343C321.718 54.1251 321.699 54.0161 321.658 53.9148C321.617 53.8135 321.555 53.7221 321.475 53.647C321.393 53.571 321.296 53.512 321.191 53.4734C321.085 53.4348 320.973 53.4174 320.861 53.422H320.811ZM332.699 59.6702C332.542 59.3281 332.306 59.0282 332.01 58.7955C331.674 58.5385 331.297 58.3399 330.895 58.2082C330.388 58.0525 329.874 57.9232 329.354 57.8208C328.929 57.7388 328.51 57.626 328.102 57.4834C327.853 57.368 327.631 57.202 327.45 56.996C327.262 56.7779 327.163 56.4965 327.175 56.2087C327.167 55.9506 327.251 55.6981 327.413 55.4964C327.598 55.2799 327.842 55.1197 328.114 55.0341C328.471 54.9043 328.849 54.8449 329.229 54.8591C329.517 54.8594 329.804 54.9015 330.081 54.9841C330.378 55.0661 330.667 55.1749 330.945 55.309C331.179 55.4108 331.395 55.5501 331.584 55.7214C331.687 55.8137 331.821 55.8629 331.96 55.8588C332.068 55.8588 332.175 55.8365 332.274 55.7936C332.373 55.7506 332.462 55.6877 332.536 55.6089C332.685 55.4595 332.771 55.2578 332.774 55.0466C332.767 54.8997 332.728 54.7562 332.658 54.6265C332.589 54.4967 332.492 54.3841 332.373 54.2968C331.974 53.9634 331.515 53.7089 331.02 53.547C330.445 53.3434 329.839 53.2419 329.229 53.2471C328.581 53.2418 327.938 53.365 327.337 53.6095C326.806 53.8247 326.346 54.184 326.01 54.6467C325.673 55.1252 325.502 55.6997 325.521 56.2837C325.512 56.6815 325.584 57.0771 325.734 57.4459C325.878 57.7823 326.091 58.0846 326.36 58.3331C326.664 58.5995 327.011 58.8109 327.388 58.9579C327.835 59.1347 328.301 59.2564 328.778 59.3203C329.257 59.3943 329.726 59.5157 330.181 59.6827C330.507 59.7975 330.799 59.9907 331.033 60.2451C331.222 60.4732 331.324 60.7611 331.321 61.0573C331.321 61.1919 331.294 61.3252 331.243 61.4496C331.191 61.5739 331.115 61.6869 331.02 61.7821C330.806 61.9979 330.545 62.1606 330.256 62.257C329.92 62.3838 329.563 62.4474 329.204 62.4444C328.715 62.4588 328.228 62.3693 327.776 62.182C327.354 61.9986 326.962 61.7544 326.611 61.4572C326.476 61.3384 326.302 61.2718 326.122 61.2698C326.012 61.2681 325.903 61.2895 325.801 61.3325C325.7 61.3756 325.609 61.4393 325.534 61.5197C325.387 61.6704 325.307 61.8723 325.308 62.082C325.304 62.218 325.339 62.3522 325.408 62.4694C325.47 62.6067 325.565 62.7268 325.684 62.8193C326.149 63.2407 326.694 63.5638 327.287 63.769C327.907 63.9627 328.554 64.0556 329.204 64.044C329.849 64.0502 330.489 63.9225 331.083 63.6691C331.631 63.4424 332.111 63.0762 332.473 62.6069C332.828 62.1356 333.013 61.559 332.999 60.9699C333 60.5328 332.915 60.0998 332.749 59.6952L332.699 59.6702ZM103.317 18.5572H100.198V15.2956C100.205 14.9305 100.071 14.5766 99.8223 14.3084C99.7009 14.1742 99.5519 14.0678 99.3854 13.9966C99.2188 13.9254 99.0389 13.8911 98.8578 13.896C98.6713 13.8929 98.4862 13.9278 98.3139 13.9988C98.1415 14.0697 97.9856 14.1751 97.8556 14.3084C97.7263 14.4381 97.6243 14.5922 97.5555 14.7617C97.4866 14.9312 97.4524 15.1128 97.4548 15.2956V18.5572H95.2502C95.0811 18.5529 94.9129 18.5828 94.7558 18.6451C94.5986 18.7073 94.4557 18.8007 94.3357 18.9196C94.2086 19.0318 94.1079 19.1706 94.0407 19.3261C93.9736 19.4817 93.9417 19.6501 93.9474 19.8193C93.9481 19.9876 93.9828 20.1541 94.0495 20.3087C94.1163 20.4633 94.2136 20.6029 94.3357 20.7191C94.4547 20.8402 94.5971 20.9358 94.7543 21.0003C94.9115 21.0647 95.0802 21.0966 95.2502 21.0939H97.4548V32.0033C97.4027 32.8616 97.5618 33.7196 97.9183 34.5025C98.1635 35.024 98.5608 35.4596 99.0582 35.7522C99.4877 35.9915 99.9601 36.1443 100.449 36.202C100.925 36.202 101.313 36.202 101.701 36.202C102.242 36.1895 102.769 36.0343 103.229 35.7522C103.434 35.6584 103.609 35.5115 103.737 35.3268C103.865 35.1421 103.94 34.9264 103.956 34.7025C103.962 34.3961 103.855 34.0981 103.655 33.8652C103.581 33.7689 103.486 33.69 103.378 33.6339C103.27 33.5778 103.151 33.5459 103.029 33.5403C102.821 33.5316 102.615 33.5745 102.428 33.6653C102.237 33.7432 102.032 33.7814 101.826 33.7778C101.561 33.7763 101.297 33.7255 101.05 33.6278C100.778 33.5206 100.552 33.3216 100.411 33.0655C100.225 32.6764 100.143 32.2459 100.173 31.8158V21.0939H103.292C103.461 21.0982 103.629 21.0683 103.786 21.0061C103.944 20.9438 104.086 20.8504 104.206 20.7315C104.438 20.4988 104.568 20.1846 104.57 19.8568C104.576 19.6861 104.547 19.5159 104.484 19.3569C104.422 19.1978 104.327 19.0532 104.206 18.9321C104.09 18.814 103.952 18.7201 103.799 18.6557C103.647 18.5914 103.483 18.5579 103.317 18.5572ZM121.38 18.3697C120.958 18.1249 120.478 17.9996 119.99 18.0073C119.185 17.9962 118.387 18.1537 117.647 18.4697C116.947 18.771 116.307 19.1942 115.756 19.7193C115.214 20.2547 114.757 20.8701 114.403 21.5438C114.282 21.7838 114.173 22.0299 114.077 22.2811V19.7818C114.091 19.4081 113.956 19.0441 113.701 18.7696C113.571 18.6383 113.415 18.5359 113.242 18.4691C113.069 18.4024 112.884 18.3728 112.699 18.3822C112.519 18.377 112.339 18.4087 112.171 18.4753C112.003 18.542 111.85 18.6421 111.722 18.7696C111.592 18.9028 111.49 19.0614 111.423 19.2355C111.356 19.4096 111.326 19.5956 111.334 19.7818V34.69C111.329 34.8721 111.361 35.0533 111.428 35.2228C111.495 35.3924 111.595 35.5469 111.722 35.6772C111.845 35.8131 111.996 35.9204 112.165 35.9917C112.334 36.0629 112.516 36.0963 112.699 36.0896C112.882 36.0963 113.065 36.0629 113.234 35.9917C113.403 35.9204 113.554 35.8131 113.676 35.6772C113.806 35.5475 113.908 35.3934 113.977 35.2239C114.045 35.0544 114.08 34.8729 114.077 34.69V26.3549C114.071 25.5644 114.216 24.7799 114.503 24.0431C114.778 23.3491 115.163 22.7036 115.643 22.1311C116.072 21.6002 116.594 21.1514 117.184 20.8065C117.701 20.5041 118.288 20.3405 118.887 20.3317C119.241 20.318 119.592 20.3864 119.914 20.5316C120.182 20.6691 120.478 20.7419 120.779 20.7441C121.099 20.7362 121.403 20.6065 121.631 20.3816C121.764 20.2379 121.866 20.0683 121.931 19.8834C121.995 19.6985 122.021 19.5022 122.006 19.307C121.996 19.1089 121.933 18.9173 121.823 18.7523C121.712 18.5873 121.559 18.4551 121.38 18.3697ZM142.925 18.6696C143.056 18.798 143.16 18.9519 143.228 19.1217C143.297 19.2915 143.331 19.4737 143.326 19.6569V34.765C143.328 34.9478 143.294 35.1294 143.225 35.2989C143.157 35.4684 143.055 35.6225 142.925 35.7522C142.803 35.8881 142.651 35.9954 142.483 36.0667C142.314 36.1379 142.131 36.1713 141.948 36.1646C141.76 36.171 141.572 36.1376 141.397 36.0665C141.222 35.9954 141.064 35.8883 140.934 35.7522C140.806 35.6219 140.706 35.4674 140.639 35.2978C140.572 35.1283 140.541 34.9471 140.545 34.765V33.3154C140.197 33.847 139.776 34.3266 139.293 34.74C138.669 35.2686 137.962 35.6909 137.201 35.9896C136.373 36.324 135.488 36.4938 134.595 36.4895C133.099 36.5002 131.633 36.0651 130.386 35.2398C129.129 34.42 128.113 33.2814 127.443 31.9408C126.718 30.459 126.354 28.8281 126.378 27.1797C126.344 25.5194 126.718 23.8761 127.468 22.3936C128.131 21.0692 129.139 19.947 130.386 19.1445C131.616 18.3487 133.055 17.9354 134.52 17.9573C135.46 17.951 136.393 18.1118 137.276 18.4322C138.078 18.7176 138.824 19.1405 139.481 19.6819C139.899 20.047 140.266 20.4674 140.57 20.9315V19.5944C140.563 19.412 140.594 19.2302 140.661 19.0603C140.728 18.8904 140.829 18.7362 140.959 18.6072C141.092 18.4768 141.251 18.3751 141.426 18.3085C141.6 18.2418 141.787 18.2116 141.973 18.2198C142.154 18.226 142.332 18.2691 142.496 18.3465C142.66 18.4239 142.806 18.5338 142.925 18.6696ZM139.957 30.6662C140.475 29.5952 140.736 28.4188 140.721 27.2297C140.737 26.0525 140.475 24.8881 139.957 23.8306C139.489 22.8687 138.781 22.0426 137.902 21.4313C137.006 20.835 135.948 20.5255 134.871 20.5441C133.804 20.5284 132.756 20.8332 131.865 21.4188C130.975 22.0119 130.262 22.8318 129.798 23.7932C129.273 24.8619 129.011 26.0399 129.034 27.2297C129.016 28.4162 129.269 29.5913 129.773 30.6662C130.224 31.6458 130.94 32.4809 131.839 33.078C132.733 33.6824 133.792 33.9967 134.871 33.9777C135.95 33.9983 137.01 33.6839 137.902 33.078C138.789 32.4693 139.497 31.6371 139.957 30.6662ZM163.757 18.9696C162.662 18.2779 161.38 17.9417 160.086 18.0073C159.274 18.003 158.467 18.147 157.706 18.4322C156.969 18.7128 156.276 19.1001 155.652 19.5819C155.051 20.0371 154.526 20.5856 154.099 21.2064L153.999 21.3814V19.8568C154.013 19.4831 153.877 19.119 153.623 18.8446C153.496 18.7116 153.342 18.6079 153.171 18.541C153 18.474 152.816 18.4454 152.633 18.4572C152.45 18.4503 152.268 18.4811 152.098 18.5478C151.928 18.6144 151.773 18.7155 151.644 18.8446C151.513 18.9778 151.411 19.1364 151.344 19.3105C151.277 19.4846 151.247 19.6706 151.255 19.8568V34.765C151.251 34.9471 151.282 35.1283 151.349 35.2978C151.416 35.4674 151.516 35.6219 151.644 35.7522C151.768 35.8897 151.921 35.9981 152.092 36.0694C152.263 36.1407 152.448 36.1732 152.633 36.1646C152.816 36.1713 152.999 36.1379 153.168 36.0667C153.336 35.9954 153.488 35.8881 153.61 35.7522C153.738 35.6219 153.838 35.4674 153.905 35.2978C153.971 35.1283 154.003 34.9471 153.999 34.765V25.2302C153.991 24.387 154.244 23.5621 154.725 22.8684C155.211 22.1536 155.87 21.5732 156.642 21.1814C157.456 20.7546 158.364 20.5356 159.285 20.5441C160.166 20.4941 161.04 20.7167 161.79 21.1814C162.4 21.59 162.865 22.1805 163.118 22.8684C163.386 23.6265 163.518 24.4262 163.506 25.2302V34.765C163.499 35.1301 163.633 35.484 163.882 35.7522C164.007 35.8914 164.162 36.0007 164.336 36.0721C164.509 36.1435 164.697 36.1751 164.884 36.1646C165.067 36.1713 165.249 36.1379 165.418 36.0667C165.587 35.9954 165.738 35.8881 165.861 35.7522C165.989 35.6219 166.089 35.4674 166.155 35.2978C166.222 35.1283 166.254 34.9471 166.249 34.765V25.1678C166.267 23.9326 166.077 22.7033 165.686 21.5313C165.34 20.5004 164.679 19.6041 163.794 18.9696H163.757ZM184.462 27.717C183.899 27.3214 183.284 27.006 182.634 26.7798C181.957 26.5424 181.243 26.3299 180.517 26.1425C179.79 25.955 178.976 25.6801 178.312 25.4427C177.72 25.2511 177.18 24.9261 176.734 24.493C176.342 24.0913 176.122 23.5537 176.12 22.9934C176.086 22.4282 176.275 21.8723 176.646 21.4438C177.019 21.0764 177.474 20.8023 177.974 20.6441C178.482 20.4728 179.015 20.3842 179.552 20.3816C180.373 20.3757 181.186 20.5329 181.945 20.844C182.653 21.1484 183.28 21.6151 183.774 22.2061C183.983 22.4062 184.26 22.5219 184.55 22.531C184.853 22.5476 185.151 22.4544 185.389 22.2686C185.536 22.1643 185.654 22.0251 185.733 21.8635C185.812 21.702 185.849 21.5233 185.84 21.3439C185.826 21.0308 185.707 20.7316 185.502 20.4941C185.022 19.8939 184.426 19.3966 183.748 19.032C183.105 18.6911 182.418 18.4389 181.707 18.2823C181.044 18.1368 180.368 18.0614 179.69 18.0573C178.619 18.0414 177.556 18.25 176.571 18.6696C175.679 19.0465 174.902 19.6497 174.316 20.4191C173.748 21.1937 173.453 22.134 173.477 23.0934C173.452 23.8762 173.633 24.6518 174.003 25.3427C174.359 25.9396 174.843 26.4514 175.418 26.8423C176.026 27.2556 176.688 27.5836 177.385 27.817C178.124 28.0794 178.863 28.3043 179.627 28.5043C180.306 28.683 180.975 28.8957 181.632 29.1416C182.198 29.3435 182.718 29.6581 183.16 30.0663C183.358 30.2661 183.513 30.5048 183.614 30.7671C183.715 31.0295 183.761 31.31 183.748 31.5909C183.764 31.8823 183.72 32.1738 183.622 32.4484C183.523 32.723 183.37 32.9753 183.172 33.1904C182.791 33.5929 182.305 33.8826 181.769 34.0277C181.239 34.1827 180.693 34.275 180.141 34.3026C179.094 34.3363 178.055 34.1041 177.122 33.6278C176.277 33.1771 175.528 32.5658 174.917 31.8283C174.706 31.5786 174.405 31.4216 174.078 31.3909C173.784 31.3563 173.486 31.4272 173.239 31.5909C173.078 31.6783 172.942 31.8039 172.841 31.9564C172.741 32.109 172.679 32.2839 172.663 32.4656C172.649 32.7979 172.741 33.126 172.926 33.4029C173.723 34.5292 174.833 35.3981 176.12 35.9021C177.317 36.3705 178.592 36.6121 179.878 36.6144C180.955 36.622 182.023 36.4182 183.022 36.0146C183.945 35.6446 184.757 35.0418 185.377 34.2651C185.973 33.4833 186.287 32.5231 186.266 31.5409C186.292 30.7557 186.129 29.9758 185.79 29.2666C185.499 28.6356 185.055 28.0862 184.5 27.667L184.462 27.717ZM206.133 32.3157C205.966 32.3081 205.799 32.334 205.642 32.392C205.484 32.4499 205.341 32.5387 205.219 32.6531C204.945 32.9205 204.637 33.1515 204.304 33.3404C203.905 33.5437 203.485 33.7029 203.051 33.8152C202.43 33.9727 201.789 34.0442 201.148 34.0277C199.993 34.0513 198.857 33.7386 197.878 33.1279C196.945 32.5439 196.188 31.7192 195.686 30.7411C195.147 29.6767 194.876 28.4971 194.897 27.3046C194.873 26.1129 195.153 24.9347 195.711 23.8806C196.244 22.9009 197.02 22.0746 197.966 21.4813C198.966 20.8782 200.117 20.5705 201.285 20.5941C201.815 20.5944 202.343 20.6446 202.864 20.7441C203.296 20.8072 203.717 20.9292 204.116 21.1064C204.371 21.2414 204.607 21.4095 204.818 21.6063C204.987 21.7693 205.172 21.9158 205.369 22.0437C205.591 22.1776 205.848 22.2428 206.108 22.2311C206.272 22.2381 206.435 22.2053 206.583 22.1357C206.731 22.066 206.861 21.9616 206.96 21.8312C207.164 21.5755 207.274 21.2582 207.273 20.9315C207.26 20.6383 207.179 20.3521 207.035 20.096C206.892 19.8399 206.69 19.621 206.446 19.4569C205.778 18.972 205.02 18.6237 204.216 18.4322C203.173 18.1696 202.099 18.0436 201.022 18.0573C199.398 18.0288 197.799 18.4622 196.413 19.307C195.095 20.1145 194.021 21.2633 193.306 22.631C192.551 24.0767 192.168 25.687 192.191 27.3171C192.167 28.9523 192.541 30.5689 193.281 32.0283C193.961 33.3967 195.011 34.5481 196.312 35.3523C197.686 36.1953 199.272 36.6288 200.884 36.6019C202 36.6125 203.11 36.4566 204.179 36.1396C205.022 35.8975 205.815 35.5083 206.521 34.9899C206.753 34.8432 206.95 34.6474 207.097 34.4162C207.244 34.1851 207.338 33.9244 207.373 33.6528C207.387 33.3143 207.27 32.9834 207.047 32.7281C206.947 32.5887 206.815 32.4745 206.663 32.3942C206.511 32.314 206.343 32.27 206.171 32.2657L206.133 32.3157ZM228.317 23.0309C228.784 24.1343 229.027 25.3195 229.031 26.5174C229.035 26.6905 228.999 26.8623 228.928 27.0202C228.856 27.178 228.75 27.3179 228.618 27.4296C228.356 27.6641 228.017 27.7933 227.666 27.792H215.139C215.194 28.8277 215.476 29.8388 215.966 30.7536C216.485 31.7401 217.264 32.5657 218.221 33.1404C219.238 33.7354 220.399 34.0381 221.578 34.0152C222.292 34.0315 223.004 33.9259 223.682 33.7028C224.228 33.5236 224.744 33.2623 225.211 32.928C225.599 32.6514 225.96 32.3375 226.288 31.9908C226.546 31.8001 226.856 31.6912 227.177 31.6784C227.332 31.6747 227.486 31.7041 227.628 31.7644C227.771 31.8247 227.899 31.9147 228.004 32.0283C228.114 32.1355 228.2 32.264 228.258 32.4058C228.316 32.5476 228.345 32.6998 228.342 32.853C228.336 33.0587 228.285 33.2605 228.192 33.4441C228.098 33.6277 227.966 33.7885 227.803 33.9152C227.046 34.6855 226.155 35.3122 225.173 35.7647C224.083 36.2897 222.888 36.559 221.678 36.5519C219.991 36.5944 218.322 36.189 216.843 35.3773C215.495 34.6352 214.387 33.5256 213.649 32.1782C212.865 30.7332 212.472 29.1096 212.509 27.4671C212.477 25.6921 212.909 23.9393 213.761 22.3811C214.477 21.0435 215.547 19.9281 216.855 19.157C218.075 18.4315 219.469 18.0473 220.889 18.0448C221.936 18.0402 222.975 18.2397 223.945 18.6322C224.926 19.011 225.815 19.5947 226.551 20.3442C227.312 21.103 227.924 21.9974 228.355 22.9809L228.317 23.0309ZM215.653 24.2805C215.504 24.6854 215.395 25.104 215.327 25.5302H226.112V25.2677C226.065 24.3871 225.751 23.5416 225.211 22.8434C224.68 22.1826 224.008 21.6488 223.244 21.2814C222.488 20.9241 221.662 20.7405 220.826 20.7441C220.129 20.746 219.437 20.873 218.785 21.1189C218.099 21.3731 217.476 21.7692 216.956 22.2811C216.413 22.8251 215.983 23.4705 215.691 24.1805L215.653 24.2805ZM248.572 19.0695C247.474 18.3753 246.187 18.0391 244.889 18.1073C244.081 18.102 243.278 18.246 242.522 18.5322C241.782 18.8153 241.086 19.2025 240.455 19.6819C239.86 20.1407 239.341 20.6887 238.914 21.3064L238.814 21.4813V19.9568C238.828 19.583 238.693 19.219 238.438 18.9446C238.307 18.8145 238.15 18.713 237.978 18.6463C237.805 18.5796 237.621 18.5493 237.436 18.5572C237.255 18.552 237.076 18.5837 236.908 18.6503C236.74 18.7169 236.587 18.817 236.459 18.9446C236.327 19.0772 236.223 19.2354 236.154 19.4094C236.085 19.5835 236.053 19.7697 236.058 19.9568V34.8649C236.056 35.0478 236.09 35.2293 236.159 35.3988C236.228 35.5684 236.33 35.7225 236.459 35.8522C236.582 35.988 236.733 36.0954 236.902 36.1666C237.071 36.2379 237.253 36.2713 237.436 36.2645C237.644 36.2753 237.852 36.234 238.04 36.1446C238.228 36.0551 238.391 35.9202 238.513 35.7522C238.643 35.6225 238.745 35.4684 238.814 35.2989C238.882 35.1294 238.917 34.9478 238.914 34.765V25.2302C238.908 24.3891 239.156 23.5656 239.628 22.8684C240.122 22.1559 240.785 21.5763 241.557 21.1814C242.372 20.7531 243.28 20.5341 244.2 20.5441C245.082 20.4924 245.957 20.7151 246.706 21.1814C247.319 21.586 247.785 22.1779 248.033 22.8684C248.306 23.6258 248.442 24.4255 248.434 25.2302V34.765C248.427 35.1301 248.562 35.484 248.81 35.7522C248.934 35.8897 249.087 35.9981 249.258 36.0694C249.43 36.1407 249.614 36.1732 249.8 36.1646C249.983 36.1713 250.165 36.1379 250.334 36.0667C250.503 35.9954 250.654 35.8881 250.777 35.7522C250.906 35.6225 251.008 35.4684 251.077 35.2989C251.146 35.1294 251.18 34.9478 251.178 34.765V25.1678C251.196 23.9326 251.005 22.7033 250.614 21.5313C250.239 20.4848 249.536 19.5866 248.61 18.9696L248.572 19.0695ZM274.652 11.3093C274.783 11.44 274.887 11.5961 274.955 11.7679C275.024 11.9398 275.057 12.1239 275.053 12.309V34.8025C275.055 34.9853 275.021 35.1668 274.952 35.3364C274.883 35.5059 274.781 35.66 274.652 35.7897C274.529 35.9255 274.378 36.0329 274.209 36.1041C274.04 36.1754 273.858 36.2088 273.675 36.202C273.486 36.2085 273.298 36.1751 273.123 36.104C272.948 36.0329 272.791 35.9258 272.66 35.7897C272.533 35.6594 272.432 35.5049 272.366 35.3353C272.299 35.1657 272.267 34.9845 272.272 34.8025V33.2529C271.923 33.7949 271.502 34.2868 271.019 34.715C270.385 35.2419 269.67 35.6639 268.902 35.9646C268.075 36.299 267.19 36.4688 266.297 36.4645C264.805 36.4727 263.344 36.0377 262.1 35.2148C260.848 34.3938 259.836 33.2552 259.169 31.9158C258.422 30.4411 258.048 28.8066 258.08 27.1547C258.048 25.4907 258.422 23.8441 259.169 22.3561C259.832 21.0281 260.84 19.9019 262.088 19.0945C263.317 18.2987 264.756 17.8855 266.222 17.9074C267.145 17.9021 268.061 18.063 268.927 18.3822C269.727 18.6732 270.472 19.0956 271.132 19.6319C271.567 19.995 271.95 20.4154 272.272 20.8815V12.0591C272.267 11.877 272.299 11.6958 272.366 11.5262C272.432 11.3566 272.533 11.2021 272.66 11.0719C272.791 10.9357 272.948 10.8286 273.123 10.7575C273.298 10.6865 273.486 10.653 273.675 10.6595C273.874 10.669 274.069 10.7234 274.245 10.8186C274.421 10.9138 274.573 11.0474 274.689 11.2093L274.652 11.3093ZM271.721 30.7536C272.247 29.6811 272.509 28.4986 272.485 27.3046C272.507 26.1149 272.245 24.9369 271.721 23.8681C271.265 22.8985 270.555 22.0695 269.666 21.4688C268.769 20.8761 267.711 20.571 266.635 20.5941C265.568 20.5784 264.52 20.8832 263.629 21.4688C262.733 22.0654 262.018 22.8952 261.562 23.8681C261.037 24.9369 260.775 26.1149 260.798 27.3046C260.779 28.486 261.041 29.6549 261.562 30.7161C262.021 31.6906 262.735 32.5237 263.629 33.1279C264.515 33.7268 265.564 34.0407 266.635 34.0277C267.71 34.0445 268.766 33.7399 269.666 33.1529C270.549 32.5459 271.258 31.7187 271.721 30.7536ZM284.347 12.6464C283.904 12.6236 283.466 12.7417 283.095 12.9838C282.939 13.1117 282.817 13.275 282.739 13.4599C282.66 13.6448 282.628 13.8458 282.644 14.046V14.5208C282.623 14.7179 282.65 14.917 282.722 15.1017C282.794 15.2864 282.909 15.4514 283.057 15.583C283.421 15.8418 283.864 15.9656 284.31 15.9329C284.755 15.9656 285.198 15.8418 285.562 15.583C285.713 15.4526 285.83 15.2882 285.904 15.1034C285.978 14.9187 286.007 14.7189 285.988 14.5208V14.046C286.009 13.8489 285.982 13.6499 285.91 13.4652C285.838 13.2805 285.723 13.1155 285.575 12.9838C285.223 12.7173 284.789 12.5805 284.347 12.5964V12.6464ZM284.347 18.2323C284.159 18.2258 283.971 18.2592 283.796 18.3303C283.621 18.4014 283.463 18.5085 283.333 18.6446C283.203 18.7739 283.1 18.9279 283.031 19.0976C282.962 19.2672 282.929 19.4489 282.932 19.6319V34.815C282.929 34.9978 282.964 35.1793 283.032 35.3489C283.101 35.5184 283.203 35.6725 283.333 35.8022C283.463 35.9383 283.621 36.0454 283.796 36.1165C283.971 36.1876 284.159 36.221 284.347 36.2145C284.53 36.2213 284.713 36.1879 284.882 36.1166C285.05 36.0454 285.202 35.938 285.324 35.8022C285.452 35.6719 285.552 35.5174 285.619 35.3478C285.685 35.1782 285.717 34.997 285.713 34.815V19.6319C285.718 19.4497 285.686 19.2683 285.62 19.0986C285.553 18.929 285.452 18.7745 285.324 18.6446C285.206 18.4997 285.057 18.3829 284.888 18.3029C284.719 18.2229 284.534 18.1817 284.347 18.1823V18.2323ZM306.043 19.0195C304.945 18.3254 303.658 17.9891 302.36 18.0573C301.551 18.0531 300.749 18.1971 299.993 18.4822C299.255 18.7627 298.563 19.1501 297.938 19.6319C297.337 20.0871 296.812 20.6356 296.385 21.2564L296.285 21.4313V19.9068C296.299 19.5331 296.164 19.169 295.909 18.8946C295.779 18.7633 295.622 18.6609 295.449 18.5941C295.277 18.5274 295.092 18.4977 294.907 18.5072C294.726 18.502 294.546 18.5337 294.378 18.6003C294.21 18.6669 294.058 18.767 293.93 18.8946C293.799 19.0278 293.697 19.1864 293.63 19.3605C293.564 19.5346 293.533 19.7205 293.541 19.9068V34.815C293.537 34.997 293.569 35.1782 293.635 35.3478C293.702 35.5174 293.802 35.6719 293.93 35.8022C294.052 35.938 294.204 36.0454 294.372 36.1166C294.541 36.1879 294.724 36.2213 294.907 36.2145C295.09 36.2213 295.272 36.1879 295.441 36.1166C295.61 36.0454 295.761 35.938 295.884 35.8022C296.013 35.6725 296.115 35.5184 296.184 35.3489C296.253 35.1793 296.287 34.9978 296.285 34.815V25.2802C296.277 24.437 296.531 23.612 297.011 22.9184C297.497 22.2036 298.156 21.6232 298.928 21.2314C299.742 20.8031 300.65 20.584 301.571 20.5941C302.452 20.5473 303.325 20.7696 304.076 21.2314C304.659 21.6502 305.097 22.2399 305.329 22.9184C305.602 23.6757 305.737 24.4755 305.73 25.2802V34.815C305.722 35.1801 305.857 35.534 306.105 35.8022C306.229 35.9397 306.383 36.048 306.554 36.1194C306.725 36.1907 306.91 36.2232 307.095 36.2145C307.28 36.2232 307.465 36.1907 307.636 36.1194C307.807 36.048 307.96 35.9397 308.084 35.8022C308.212 35.6719 308.312 35.5174 308.379 35.3478C308.446 35.1782 308.478 34.997 308.473 34.815V25.2177C308.491 23.9826 308.3 22.7533 307.909 21.5813C307.58 20.5355 306.926 19.6209 306.043 18.9696V19.0195ZM332.974 19.7068V34.7025C333.035 36.3403 332.627 37.9615 331.797 39.3761C331.038 40.5974 329.93 41.5637 328.615 42.1503C327.207 42.7711 325.682 43.0822 324.143 43.0626C323.38 43.0533 322.621 42.9654 321.876 42.8001C321.128 42.6482 320.394 42.4307 319.684 42.1503C319.202 42.0016 318.769 41.7252 318.431 41.3506C318.145 41.1595 317.926 40.8843 317.805 40.5633C317.761 40.426 317.749 40.2809 317.769 40.1383C317.788 39.9957 317.839 39.8592 317.918 39.7385C318.003 39.594 318.123 39.4734 318.268 39.3881C318.412 39.3028 318.576 39.2557 318.744 39.2512C319.177 39.2824 319.601 39.3881 319.997 39.5636C320.222 39.5636 320.561 39.751 321.012 39.901C321.502 40.0808 322.004 40.2269 322.515 40.3383C323.062 40.4616 323.62 40.5245 324.181 40.5258C324.99 40.5798 325.802 40.4728 326.57 40.2111C327.338 39.9494 328.046 39.5381 328.653 39.0012C329.171 38.4706 329.575 37.84 329.84 37.1481C330.105 36.4561 330.225 35.7174 330.193 34.9774V33.0155C330.064 33.2694 329.913 33.5119 329.743 33.7403C329.322 34.309 328.805 34.7996 328.214 35.1898C327.6 35.6211 326.924 35.9581 326.21 36.1896C325.478 36.4283 324.713 36.5505 323.943 36.5519C322.416 36.5602 320.919 36.1261 319.634 35.3023C318.349 34.4928 317.306 33.3533 316.615 32.0033C315.844 30.5361 315.456 28.8985 315.488 27.2422C315.456 25.5738 315.844 23.9242 316.615 22.4435C317.306 21.1111 318.339 19.9856 319.609 19.182C320.887 18.3813 322.371 17.9688 323.88 17.9948C324.83 17.9846 325.774 18.1542 326.661 18.4947C327.464 18.7865 328.213 19.2087 328.878 19.7443C329.378 20.1543 329.82 20.6292 330.193 21.1564V19.6069C330.189 19.4237 330.222 19.2416 330.291 19.0717C330.36 18.9019 330.463 18.748 330.594 18.6197C330.722 18.4921 330.875 18.392 331.043 18.3254C331.211 18.2588 331.391 18.2271 331.571 18.2323C331.758 18.2241 331.944 18.2543 332.119 18.321C332.293 18.3876 332.452 18.4893 332.586 18.6197C332.722 18.7544 332.827 18.9168 332.894 19.0958C332.961 19.2749 332.988 19.4663 332.974 19.6569V19.7068ZM330.369 27.3046C330.389 26.1002 330.119 24.9086 329.58 23.8306C329.086 22.8546 328.337 22.0299 327.413 21.4438C326.462 20.8696 325.367 20.575 324.256 20.5941C323.145 20.5744 322.052 20.8784 321.112 21.4688C320.178 22.0493 319.427 22.8809 318.945 23.8681C318.416 24.9358 318.15 26.1139 318.168 27.3046C318.154 28.487 318.42 29.656 318.945 30.7161C319.43 31.7046 320.18 32.5395 321.112 33.1279C322.048 33.7313 323.142 34.0444 324.256 34.0277C325.371 34.0448 326.466 33.7411 327.413 33.1529C328.336 32.5601 329.085 31.7318 329.58 30.7536C330.129 29.6706 330.401 28.4682 330.369 27.2546V27.3046Z" fill="white"></path><path d="M33.9964 60.6449V49.8855C31.3991 47.9984 29.3433 45.4648 28.0339 42.5376C27.6498 41.6725 27.6253 40.6907 27.9658 39.8075C28.3063 38.9244 28.984 38.212 29.8502 37.8265C30.2786 37.6347 30.7407 37.5291 31.2101 37.5158C31.6795 37.5024 32.1469 37.5816 32.5856 37.7488C33.0243 37.9159 33.4256 38.1678 33.7666 38.4899C34.1075 38.812 34.3814 39.1981 34.5726 39.626C35.1727 40.9756 36.0353 42.1929 37.1104 43.2075C38.1855 44.2221 39.4517 45.0138 40.8357 45.5368C42.212 46.0671 43.6799 46.3203 45.1548 46.2817C46.6297 46.243 48.0823 45.9134 49.4288 45.3118C50.78 44.713 51.9985 43.8522 53.0135 42.7796C54.0285 41.707 54.8197 40.4439 55.3412 39.0636C55.8728 37.6907 56.1266 36.2262 56.0879 34.7549C56.0492 33.2836 55.7188 31.8344 55.1157 30.4911C54.7206 29.6294 54.6847 28.6464 55.0159 27.7583C55.3471 26.8701 56.0183 26.1496 56.8819 25.755C57.7492 25.3719 58.7333 25.3475 59.6186 25.6871C60.5038 26.0268 61.218 26.7028 61.6043 27.567C62.5955 29.765 63.1381 32.1379 63.2004 34.5473C63.2628 36.9566 62.8437 39.3543 61.9676 41.6004C61.1107 43.8534 59.8133 45.914 58.1511 47.6624C56.4888 49.4108 54.4947 50.8122 52.2848 51.785C49.921 52.8421 47.3594 53.3872 44.769 53.3845C43.531 53.3764 42.297 53.2424 41.0863 52.9846V60.5949C41.0863 61.5428 40.7088 62.4518 40.037 63.1221C39.3651 63.7923 38.4539 64.1688 37.5037 64.1688C36.5753 64.1495 35.6906 63.7712 35.0363 63.1138C34.382 62.4564 34.0092 61.5712 33.9964 60.6449ZM6.3383 23.5681C6.74198 23.8075 7.18903 23.9651 7.65386 24.0319C8.11868 24.0986 8.59215 24.0733 9.04712 23.9572C9.5021 23.8411 9.92964 23.6366 10.3053 23.3554C10.6809 23.0742 10.9972 22.7219 11.2361 22.3185C13.6038 18.229 16.8929 14.7451 20.8432 12.1424C24.7935 9.5398 29.2966 7.88978 33.9964 7.32287V21.8437C30.2365 21.088 26.3339 21.525 22.8355 23.0933C18.3852 25.0774 14.9051 28.7409 13.1582 33.2806C11.4112 37.8204 11.5398 42.866 13.5159 47.3112C13.7941 47.9446 14.2518 48.4831 14.8326 48.8605C15.4134 49.2379 16.0921 49.4378 16.7852 49.4356C17.2863 49.4355 17.7816 49.329 18.2383 49.1232C19.1045 48.7378 19.7822 48.0254 20.1227 47.1422C20.4631 46.2591 20.4387 45.2773 20.0546 44.4121C18.8535 41.6963 18.7773 38.617 19.8426 35.8454C20.9079 33.0738 23.0283 30.8348 25.7416 29.6164C28.462 28.4079 31.5511 28.3223 34.3346 29.3782C37.118 30.4342 39.3696 32.5459 40.5977 35.2523C40.7877 35.6812 41.0608 36.0686 41.4012 36.392C41.7417 36.7154 42.1428 36.9686 42.5816 37.1369C43.0204 37.3053 43.4882 37.3855 43.9581 37.3731C44.4281 37.3606 44.891 37.2556 45.3201 37.0642C46.1864 36.6788 46.864 35.9664 47.2045 35.0832C47.545 34.2001 47.5205 33.2183 47.1365 32.3531C45.8331 29.4258 43.7812 26.8918 41.1865 25.0052V7.32287C45.8857 7.89166 50.388 9.54245 54.338 12.1449C58.288 14.7474 61.5775 18.2302 63.9468 22.3185C64.2606 22.8633 64.7132 23.3155 65.2588 23.6293C65.8044 23.9432 66.4235 24.1075 67.0533 24.1055C67.6797 24.108 68.2948 23.9395 68.832 23.6181C69.2399 23.385 69.5975 23.0738 69.8845 22.7024C70.1715 22.331 70.3822 21.9067 70.5044 21.4539C70.6266 21.0011 70.658 20.5286 70.5967 20.0637C70.5354 19.5987 70.3827 19.1505 70.1473 18.7446C66.8344 13.053 62.084 8.3272 56.3695 5.03827C50.655 1.74933 44.1762 0.0121756 37.5789 0C30.9811 0.00966471 24.5013 1.74575 18.7864 5.03493C13.0715 8.32411 8.32146 13.0513 5.01052 18.7446C4.55526 19.562 4.43931 20.5249 4.68754 21.4267C4.93577 22.3285 5.5284 23.0973 6.3383 23.5681ZM71.5753 33.8652C70.6251 33.8652 69.7139 34.2417 69.042 34.9119C68.3702 35.5822 67.9927 36.4912 67.9927 37.4391C67.9861 45.4852 64.7801 53.2001 59.0782 58.8907C53.3763 64.5813 45.6443 67.7829 37.5789 67.7928C29.5124 67.7829 21.7791 64.5817 16.0752 58.8914C10.3713 53.2012 7.16245 45.4864 7.15251 37.4391C7.15251 36.4934 6.77679 35.5862 6.10764 34.9164C5.43849 34.2465 4.53051 33.8685 3.58254 33.8652C3.11208 33.8652 2.64621 33.9576 2.21156 34.1372C1.77691 34.3168 1.38197 34.5801 1.0493 34.9119C0.716631 35.2438 0.452752 35.6378 0.272713 36.0714C0.0926745 36.505 0 36.9698 0 37.4391C0 47.3818 3.9592 56.9173 11.0066 63.9479C18.054 70.9785 27.6124 74.9282 37.5789 74.9282C47.5454 74.9282 57.1038 70.9785 64.1512 63.9479C71.1986 56.9173 75.1578 47.3818 75.1578 37.4391C75.1578 36.4912 74.7803 35.5822 74.1085 34.9119C73.4366 34.2417 72.5254 33.8652 71.5753 33.8652Z" fill="#FF6900"></path></svg> 